STARTFONT 2.1
COMMENT $Xorg: $
COMMENT ISO10646-1 extension by Markus Kuhn <mkuhn@acm.org>, 2001-03-20
COMMENT  (c) Copyright Bigelow & Holmes 1986, 1985. Lucida is a registered
COMMENT  trademark of Bigelow & Holmes. See LEGAL NOTICE file for terms 
COMMENT  of the license. 
FONT -B&H-Lucida-Bold-I-Normal-Sans-14-100-100-100-P-90-ISO10646-1
SIZE 10 100 100
FONTBOUNDINGBOX 28 20 -9 -6
STARTPROPERTIES 22
COMMENT Begin LogicalFontDescription
FONTNAME_REGISTRY ""
FOUNDRY "B&H"
FAMILY_NAME "Lucida"
WEIGHT_NAME "Bold"
SLANT "I"
SETWIDTH_NAME "Normal"
ADD_STYLE_NAME "Sans"
PIXEL_SIZE 14
POINT_SIZE 100
RESOLUTION_X 100
RESOLUTION_Y 100
SPACING "P"
AVERAGE_WIDTH 90
CHARSET_REGISTRY "ISO10646"
CHARSET_ENCODING "1"
COMMENT END LogicalFontDescription
FONT_ASCENT 13
FONT_DESCENT 3
DEFAULT_CHAR 0
COPYRIGHT "Copyright Bigelow & Holmes 1986, 1985."
FACE_NAME "Lucida Sans Bold Italic"
X_HEIGHT 7
CAP_HEIGHT 10
ENDPROPERTIES
CHARS 723
STARTCHAR char0
ENCODING 0
SWIDTH 813 0
DWIDTH 11 0
BBX 11 9 1 0
BITMAP
AAA0
0000
8020
0000
8020
0000
8020
0000
AAA0
ENDCHAR
STARTCHAR space
ENCODING 32
SWIDTH 343 0
DWIDTH 5 0
BBX 1 1 0 0
BITMAP
00
ENDCHAR
STARTCHAR exclam
ENCODING 33
SWIDTH 343 0
DWIDTH 5 0
BBX 5 10 1 0
BITMAP
38
38
30
30
70
60
60
00
00
E0
ENDCHAR
STARTCHAR quotedbl
ENCODING 34
SWIDTH 530 0
DWIDTH 7 0
BBX 6 4 2 6
BITMAP
CC
CC
CC
CC
ENDCHAR
STARTCHAR numbersign
ENCODING 35
SWIDTH 687 0
DWIDTH 10 0
BBX 9 10 1 0
BITMAP
0480
0900
0900
7F80
1200
2400
FF00
4800
4800
9000
ENDCHAR
STARTCHAR dollar
ENCODING 36
SWIDTH 687 0
DWIDTH 10 0
BBX 8 14 2 -2
BITMAP
04
0C
1F
3F
24
38
3C
1E
16
16
FE
FC
30
30
ENDCHAR
STARTCHAR percent
ENCODING 37
SWIDTH 908 0
DWIDTH 13 0
BBX 12 10 1 0
BITMAP
7030
D840
D880
D900
7200
04E0
09B0
1130
21B0
C0E0
ENDCHAR
STARTCHAR ampersand
ENCODING 38
SWIDTH 816 0
DWIDTH 11 0
BBX 11 10 1 0
BITMAP
0F00
1880
1980
1B00
3E20
6460
C4C0
C280
E380
7FC0
ENDCHAR
STARTCHAR quotesingle
ENCODING 39
SWIDTH 265 0
DWIDTH 4 0
BBX 3 4 2 6
BITMAP
E0
E0
C0
40
ENDCHAR
STARTCHAR parenleft
ENCODING 40
SWIDTH 386 0
DWIDTH 5 0
BBX 5 13 1 -3
BITMAP
08
18
30
60
60
E0
C0
C0
C0
C0
C0
60
20
ENDCHAR
STARTCHAR parenright
ENCODING 41
SWIDTH 386 0
DWIDTH 5 0
BBX 5 13 1 -3
BITMAP
20
30
18
18
18
18
18
38
30
30
60
C0
80
ENDCHAR
STARTCHAR asterisk
ENCODING 42
SWIDTH 464 0
DWIDTH 6 0
BBX 5 5 2 5
BITMAP
30
68
D8
D0
50
ENDCHAR
STARTCHAR plus
ENCODING 43
SWIDTH 687 0
DWIDTH 10 0
BBX 8 8 2 0
BITMAP
08
08
08
FF
10
10
10
10
ENDCHAR
STARTCHAR comma
ENCODING 44
SWIDTH 343 0
DWIDTH 5 0
BBX 4 5 0 -3
BITMAP
70
F0
30
60
C0
ENDCHAR
STARTCHAR hyphen
ENCODING 45
SWIDTH 289 0
DWIDTH 4 0
BBX 3 1 1 4
BITMAP
E0
ENDCHAR
STARTCHAR period
ENCODING 46
SWIDTH 343 0
DWIDTH 5 0
BBX 3 2 1 0
BITMAP
E0
E0
ENDCHAR
STARTCHAR slash
ENCODING 47
SWIDTH 596 0
DWIDTH 8 0
BBX 11 13 0 -3
BITMAP
0060
0080
0080
0100
0200
0200
0400
0800
0800
1000
2000
2000
C000
ENDCHAR
STARTCHAR zero
ENCODING 48
SWIDTH 687 0
DWIDTH 10 0
BBX 8 10 2 0
BITMAP
1E
32
63
63
E3
C7
C6
C6
4C
78
ENDCHAR
STARTCHAR one
ENCODING 49
SWIDTH 687 0
DWIDTH 10 0
BBX 5 10 3 0
BITMAP
F8
38
30
70
70
70
70
60
E0
E0
ENDCHAR
STARTCHAR two
ENCODING 50
SWIDTH 687 0
DWIDTH 10 0
BBX 9 10 1 0
BITMAP
3F00
2380
0180
0380
0300
0C00
1800
3000
E000
FF00
ENDCHAR
STARTCHAR three
ENCODING 51
SWIDTH 687 0
DWIDTH 10 0
BBX 8 10 2 0
BITMAP
3E
03
03
06
3C
06
06
06
8E
FC
ENDCHAR
STARTCHAR four
ENCODING 52
SWIDTH 687 0
DWIDTH 10 0
BBX 8 10 1 0
BITMAP
03
07
0E
16
26
66
FF
0C
0C
0C
ENDCHAR
STARTCHAR five
ENCODING 53
SWIDTH 687 0
DWIDTH 10 0
BBX 9 10 2 0
BITMAP
3F80
2000
2000
7C00
0E00
0700
0700
0700
8600
FC00
ENDCHAR
STARTCHAR six
ENCODING 54
SWIDTH 687 0
DWIDTH 10 0
BBX 9 10 2 0
BITMAP
1F80
3880
7000
7E00
E300
C300
C300
C300
6600
3C00
ENDCHAR
STARTCHAR seven
ENCODING 55
SWIDTH 687 0
DWIDTH 10 0
BBX 8 10 3 0
BITMAP
FF
02
04
0C
18
30
30
60
E0
C0
ENDCHAR
STARTCHAR eight
ENCODING 56
SWIDTH 687 0
DWIDTH 10 0
BBX 9 10 1 0
BITMAP
1F00
3180
2180
3B00
1E00
7F00
E300
C100
C300
7C00
ENDCHAR
STARTCHAR nine
ENCODING 57
SWIDTH 687 0
DWIDTH 10 0
BBX 9 10 1 0
BITMAP
1E00
3300
6180
6180
6180
6380
3F00
0700
8E00
F800
ENDCHAR
STARTCHAR colon
ENCODING 58
SWIDTH 343 0
DWIDTH 5 0
BBX 4 7 1 0
BITMAP
70
70
00
00
00
E0
E0
ENDCHAR
STARTCHAR semicolon
ENCODING 59
SWIDTH 343 0
DWIDTH 5 0
BBX 5 10 0 -3
BITMAP
38
78
00
00
00
70
F0
60
60
C0
ENDCHAR
STARTCHAR less
ENCODING 60
SWIDTH 687 0
DWIDTH 10 0
BBX 8 8 1 0
BITMAP
01
07
1C
60
E0
30
0C
02
ENDCHAR
STARTCHAR equal
ENCODING 61
SWIDTH 687 0
DWIDTH 10 0
BBX 9 5 1 1
BITMAP
7F80
0000
0000
0000
FF00
ENDCHAR
STARTCHAR greater
ENCODING 62
SWIDTH 687 0
DWIDTH 10 0
BBX 8 8 1 0
BITMAP
40
30
0C
07
06
18
E0
80
ENDCHAR
STARTCHAR question
ENCODING 63
SWIDTH 539 0
DWIDTH 8 0
BBX 7 10 2 0
BITMAP
FC
8E
06
0C
18
70
70
00
00
E0
ENDCHAR
STARTCHAR at
ENCODING 64
SWIDTH 833 0
DWIDTH 12 0
BBX 9 10 2 0
BITMAP
1E00
2100
4080
9E80
A680
A480
AC80
BF00
4000
3C00
ENDCHAR
STARTCHAR A
ENCODING 65
SWIDTH 771 0
DWIDTH 11 0
BBX 10 10 0 0
BITMAP
0700
0700
0F80
0B80
1380
1180
3F80
61C0
41C0
C1C0
ENDCHAR
STARTCHAR B
ENCODING 66
SWIDTH 660 0
DWIDTH 9 0
BBX 9 10 1 0
BITMAP
3F00
3180
3180
7100
7200
7F00
6300
6300
E300
FE00
ENDCHAR
STARTCHAR C
ENCODING 67
SWIDTH 737 0
DWIDTH 10 0
BBX 10 10 1 0
BITMAP
0FC0
1840
3000
6000
E000
C000
C000
E000
6180
3F00
ENDCHAR
STARTCHAR D
ENCODING 68
SWIDTH 822 0
DWIDTH 12 0
BBX 11 10 1 0
BITMAP
3FC0
38E0
7860
7060
7060
70E0
70C0
E1C0
E380
FE00
ENDCHAR
STARTCHAR E
ENCODING 69
SWIDTH 642 0
DWIDTH 9 0
BBX 9 10 1 0
BITMAP
3F80
3000
3000
7000
7E00
7000
6000
6000
E000
FF00
ENDCHAR
STARTCHAR F
ENCODING 70
SWIDTH 614 0
DWIDTH 9 0
BBX 9 10 1 0
BITMAP
3F80
3000
3000
7000
7E00
6000
6000
6000
E000
E000
ENDCHAR
STARTCHAR G
ENCODING 71
SWIDTH 755 0
DWIDTH 11 0
BBX 10 10 1 0
BITMAP
0FC0
1840
3000
6000
E000
C000
C380
E380
6300
3F00
ENDCHAR
STARTCHAR H
ENCODING 72
SWIDTH 813 0
DWIDTH 11 0
BBX 11 10 1 0
BITMAP
38E0
30E0
70E0
70C0
7FC0
61C0
61C0
E1C0
E180
E380
ENDCHAR
STARTCHAR I
ENCODING 73
SWIDTH 361 0
DWIDTH 5 0
BBX 5 10 1 0
BITMAP
38
38
30
70
70
70
70
60
E0
E0
ENDCHAR
STARTCHAR J
ENCODING 74
SWIDTH 502 0
DWIDTH 7 0
BBX 8 13 0 -3
BITMAP
07
07
07
06
06
0E
0E
0E
0C
0C
1C
1C
F0
ENDCHAR
STARTCHAR K
ENCODING 75
SWIDTH 753 0
DWIDTH 11 0
BBX 10 10 1 0
BITMAP
38C0
3900
3200
7600
7400
7E00
7600
6700
E300
E180
ENDCHAR
STARTCHAR L
ENCODING 76
SWIDTH 623 0
DWIDTH 9 0
BBX 8 10 1 0
BITMAP
38
38
30
70
70
70
70
60
E0
FF
ENDCHAR
STARTCHAR M
ENCODING 77
SWIDTH 940 0
DWIDTH 13 0
BBX 13 10 1 0
BITMAP
3C38
3C78
3C70
6CB0
6CB0
6D70
6F70
6E60
CC60
C0E0
ENDCHAR
STARTCHAR N
ENCODING 78
SWIDTH 789 0
DWIDTH 11 0
BBX 11 10 1 0
BITMAP
3060
3860
38C0
6CC0
6CC0
66C0
66C0
6380
C380
C180
ENDCHAR
STARTCHAR O
ENCODING 79
SWIDTH 855 0
DWIDTH 12 0
BBX 10 10 2 0
BITMAP
0F00
31C0
70C0
60C0
E0C0
C0C0
C180
E180
6300
3C00
ENDCHAR
STARTCHAR P
ENCODING 80
SWIDTH 645 0
DWIDTH 9 0
BBX 9 10 1 0
BITMAP
3F00
3180
7180
7180
7300
7E00
6000
E000
E000
E000
ENDCHAR
STARTCHAR Q
ENCODING 81
SWIDTH 855 0
DWIDTH 12 0
BBX 11 13 2 -3
BITMAP
0F00
31C0
70C0
60C0
E0C0
C0C0
C1C0
E180
6300
3E00
0780
03C0
00E0
ENDCHAR
STARTCHAR R
ENCODING 82
SWIDTH 708 0
DWIDTH 10 0
BBX 9 10 1 0
BITMAP
3F80
3180
7180
7380
7F00
7C00
6600
E600
E600
E300
ENDCHAR
STARTCHAR S
ENCODING 83
SWIDTH 639 0
DWIDTH 9 0
BBX 8 10 1 0
BITMAP
1F
31
70
78
3C
1E
0E
06
86
F8
ENDCHAR
STARTCHAR T
ENCODING 84
SWIDTH 747 0
DWIDTH 10 0
BBX 10 10 2 0
BITMAP
FFC0
1C00
1C00
1C00
1800
1800
1800
3800
3800
3800
ENDCHAR
STARTCHAR U
ENCODING 85
SWIDTH 759 0
DWIDTH 11 0
BBX 10 10 2 0
BITMAP
70C0
71C0
6180
6180
E180
E180
C380
C300
E300
3E00
ENDCHAR
STARTCHAR V
ENCODING 86
SWIDTH 765 0
DWIDTH 11 0
BBX 10 10 2 0
BITMAP
E0C0
E080
E100
6100
7200
7600
7400
7800
7800
3000
ENDCHAR
STARTCHAR W
ENCODING 87
SWIDTH 991 0
DWIDTH 14 0
BBX 12 10 2 0
BITMAP
C610
C630
CE20
CE60
CE40
D6C0
D680
E780
E700
E700
ENDCHAR
STARTCHAR X
ENCODING 88
SWIDTH 696 0
DWIDTH 10 0
BBX 11 10 0 0
BITMAP
3860
1880
1D00
0F00
0E00
0E00
1E00
3700
2300
C380
ENDCHAR
STARTCHAR Y
ENCODING 89
SWIDTH 681 0
DWIDTH 10 0
BBX 9 10 2 0
BITMAP
E180
6200
6600
3400
3800
3800
3800
3000
7000
7000
ENDCHAR
STARTCHAR Z
ENCODING 90
SWIDTH 687 0
DWIDTH 10 0
BBX 10 10 1 0
BITMAP
3FC0
0180
0300
0700
0E00
1C00
3800
3000
6000
FF00
ENDCHAR
STARTCHAR bracketleft
ENCODING 91
SWIDTH 386 0
DWIDTH 5 0
BBX 6 13 1 -3
BITMAP
3C
30
30
30
30
70
60
60
60
60
E0
F0
F0
ENDCHAR
STARTCHAR backslash
ENCODING 92
SWIDTH 566 0
DWIDTH 8 0
BBX 5 13 2 -3
BITMAP
C0
40
40
40
60
20
20
20
30
10
10
10
18
ENDCHAR
STARTCHAR bracketright
ENCODING 93
SWIDTH 386 0
DWIDTH 5 0
BBX 6 13 0 -3
BITMAP
3C
3C
1C
18
18
18
18
38
30
30
30
30
F0
ENDCHAR
STARTCHAR asciicircum
ENCODING 94
SWIDTH 687 0
DWIDTH 10 0
BBX 8 7 1 2
BITMAP
04
0C
1C
12
22
62
C1
ENDCHAR
STARTCHAR underscore
ENCODING 95
SWIDTH 500 0
DWIDTH 7 0
BBX 6 1 0 -2
BITMAP
FC
ENDCHAR
STARTCHAR grave
ENCODING 96
SWIDTH 663 0
DWIDTH 9 0
BBX 3 1 5 9
BITMAP
E0
ENDCHAR
STARTCHAR a
ENCODING 97
SWIDTH 681 0
DWIDTH 10 0
BBX 9 7 1 0
BITMAP
1F80
3380
6700
C700
CF00
F700
6700
ENDCHAR
STARTCHAR b
ENCODING 98
SWIDTH 681 0
DWIDTH 10 0
BBX 9 10 1 0
BITMAP
3800
3800
3800
7B80
7780
7D80
7980
7300
E600
FC00
ENDCHAR
STARTCHAR c
ENCODING 99
SWIDTH 548 0
DWIDTH 8 0
BBX 7 7 1 0
BITMAP
1E
72
60
E0
C0
E4
78
ENDCHAR
STARTCHAR d
ENCODING 100
SWIDTH 681 0
DWIDTH 10 0
BBX 9 10 1 0
BITMAP
0380
0380
0300
1F00
3700
6700
CF00
DE00
F600
6E00
ENDCHAR
STARTCHAR e
ENCODING 101
SWIDTH 612 0
DWIDTH 9 0
BBX 8 7 1 0
BITMAP
1E
33
73
E6
FC
E1
7E
ENDCHAR
STARTCHAR f
ENCODING 102
SWIDTH 464 0
DWIDTH 6 0
BBX 8 13 1 -3
BITMAP
0F
18
38
7E
30
70
70
70
60
60
E0
E0
E0
ENDCHAR
STARTCHAR g
ENCODING 103
SWIDTH 674 0
DWIDTH 9 0
BBX 9 10 1 -3
BITMAP
0F80
3380
6300
6700
EB00
F300
6700
0600
8600
F800
ENDCHAR
STARTCHAR h
ENCODING 104
SWIDTH 675 0
DWIDTH 9 0
BBX 9 10 1 0
BITMAP
3800
3800
3800
7380
7780
7B00
7300
7300
E300
E700
ENDCHAR
STARTCHAR i
ENCODING 105
SWIDTH 343 0
DWIDTH 5 0
BBX 5 10 1 0
BITMAP
38
00
00
70
70
70
70
60
E0
E0
ENDCHAR
STARTCHAR j
ENCODING 106
SWIDTH 407 0
DWIDTH 6 0
BBX 8 13 0 -3
BITMAP
07
00
00
06
06
0E
0C
0C
0C
0C
1C
18
F0
ENDCHAR
STARTCHAR k
ENCODING 107
SWIDTH 666 0
DWIDTH 9 0
BBX 9 10 1 0
BITMAP
3800
3000
3000
7180
7200
7400
7C00
6E00
E600
E700
ENDCHAR
STARTCHAR l
ENCODING 108
SWIDTH 343 0
DWIDTH 5 0
BBX 5 10 1 0
BITMAP
38
38
30
70
70
70
70
60
E0
E0
ENDCHAR
STARTCHAR m
ENCODING 109
SWIDTH 991 0
DWIDTH 14 0
BBX 13 7 1 0
BITMAP
7738
7F78
6BF8
77B0
6730
E730
E630
ENDCHAR
STARTCHAR n
ENCODING 110
SWIDTH 675 0
DWIDTH 9 0
BBX 9 7 1 0
BITMAP
7380
7780
7B00
7300
7300
E300
E700
ENDCHAR
STARTCHAR o
ENCODING 111
SWIDTH 663 0
DWIDTH 9 0
BBX 8 7 2 0
BITMAP
1E
66
67
C6
C6
CC
78
ENDCHAR
STARTCHAR p
ENCODING 112
SWIDTH 681 0
DWIDTH 10 0
BBX 9 10 1 -3
BITMAP
3B00
3780
7D80
7980
7300
7600
7C00
E000
E000
E000
ENDCHAR
STARTCHAR q
ENCODING 113
SWIDTH 681 0
DWIDTH 10 0
BBX 9 10 1 -3
BITMAP
1F80
3380
6700
C700
DF00
F700
6700
0600
0E00
0E00
ENDCHAR
STARTCHAR r
ENCODING 114
SWIDTH 542 0
DWIDTH 8 0
BBX 8 7 1 0
BITMAP
77
7E
70
70
60
E0
E0
ENDCHAR
STARTCHAR s
ENCODING 115
SWIDTH 527 0
DWIDTH 7 0
BBX 7 7 1 0
BITMAP
1E
32
78
3C
1C
8C
F8
ENDCHAR
STARTCHAR t
ENCODING 116
SWIDTH 437 0
DWIDTH 6 0
BBX 5 9 2 0
BITMAP
70
70
F8
60
60
E0
C0
F0
70
ENDCHAR
STARTCHAR u
ENCODING 117
SWIDTH 675 0
DWIDTH 9 0
BBX 9 7 1 0
BITMAP
7380
6380
6700
6700
6F00
F700
E700
ENDCHAR
STARTCHAR v
ENCODING 118
SWIDTH 630 0
DWIDTH 9 0
BBX 9 7 1 0
BITMAP
E180
E300
6200
7400
7C00
7800
7000
ENDCHAR
STARTCHAR w
ENCODING 119
SWIDTH 878 0
DWIDTH 12 0
BBX 12 7 2 0
BITMAP
C630
C620
CA40
DB40
D380
E380
E300
ENDCHAR
STARTCHAR x
ENCODING 120
SWIDTH 563 0
DWIDTH 8 0
BBX 9 7 0 0
BITMAP
3980
3A00
1C00
1C00
1C00
2E00
C700
ENDCHAR
STARTCHAR y
ENCODING 121
SWIDTH 633 0
DWIDTH 9 0
BBX 10 10 0 -3
BITMAP
70C0
7180
3300
3A00
3C00
3C00
3800
1000
3000
E000
ENDCHAR
STARTCHAR z
ENCODING 122
SWIDTH 630 0
DWIDTH 9 0
BBX 9 7 0 0
BITMAP
7F80
0300
0E00
1C00
3000
6000
FF00
ENDCHAR
STARTCHAR braceleft
ENCODING 123
SWIDTH 386 0
DWIDTH 5 0
BBX 6 13 1 -3
BITMAP
1C
3C
38
38
18
30
C0
70
70
70
E0
F0
60
ENDCHAR
STARTCHAR bar
ENCODING 124
SWIDTH 259 0
DWIDTH 4 0
BBX 4 13 1 -3
BITMAP
10
10
20
20
20
20
60
40
40
40
40
80
80
ENDCHAR
STARTCHAR braceright
ENCODING 125
SWIDTH 386 0
DWIDTH 5 0
BBX 6 13 0 -3
BITMAP
18
3C
1C
38
38
38
1C
30
60
70
70
F0
E0
ENDCHAR
STARTCHAR asciitilde
ENCODING 126
SWIDTH 687 0
DWIDTH 10 0
BBX 9 3 1 2
BITMAP
7080
C980
8700
ENDCHAR
STARTCHAR space
ENCODING 160
SWIDTH 343 0
DWIDTH 5 0
BBX 1 1 0 0
BITMAP
00
ENDCHAR
STARTCHAR exclamdown
ENCODING 161
SWIDTH 343 0
DWIDTH 5 0
BBX 5 10 0 -3
BITMAP
38
00
00
30
30
70
60
60
E0
E0
ENDCHAR
STARTCHAR cent
ENCODING 162
SWIDTH 687 0
DWIDTH 10 0
BBX 7 10 2 0
BITMAP
04
0E
3E
60
E0
C0
C2
FC
30
30
ENDCHAR
STARTCHAR sterling
ENCODING 163
SWIDTH 687 0
DWIDTH 10 0
BBX 9 10 1 0
BITMAP
0F80
1C80
1C00
1C00
1800
7E00
3800
3800
2000
FF00
ENDCHAR
STARTCHAR currency
ENCODING 164
SWIDTH 687 0
DWIDTH 10 0
BBX 11 10 0 0
BITMAP
2020
2060
1680
1900
1180
3100
1300
3F00
C080
8080
ENDCHAR
STARTCHAR yen
ENCODING 165
SWIDTH 687 0
DWIDTH 10 0
BBX 9 10 2 0
BITMAP
E180
6200
3400
3800
FC00
3800
FC00
3000
7000
7000
ENDCHAR
STARTCHAR brokenbar
ENCODING 166
SWIDTH 259 0
DWIDTH 4 0
BBX 4 13 1 -3
BITMAP
10
10
10
20
20
00
00
00
40
40
80
80
80
ENDCHAR
STARTCHAR section
ENCODING 167
SWIDTH 687 0
DWIDTH 10 0
BBX 9 13 1 -3
BITMAP
1F80
3880
3800
3E00
1F00
2700
6100
7900
7E00
1F00
0700
8600
FC00
ENDCHAR
STARTCHAR dieresis
ENCODING 168
SWIDTH 663 0
DWIDTH 9 0
BBX 5 1 4 9
BITMAP
D8
ENDCHAR
STARTCHAR copyright
ENCODING 169
SWIDTH 834 0
DWIDTH 12 0
BBX 9 10 2 0
BITMAP
1C00
6300
9E80
A080
A080
A080
A080
9E80
6300
1C00
ENDCHAR
STARTCHAR ordfeminine
ENCODING 170
SWIDTH 539 0
DWIDTH 8 0
BBX 7 5 2 5
BITMAP
3E
4E
DC
FC
FC
ENDCHAR
STARTCHAR guillemotleft
ENCODING 171
SWIDTH 633 0
DWIDTH 9 0
BBX 8 7 1 0
BITMAP
11
13
24
EC
6C
66
34
ENDCHAR
STARTCHAR logicalnot
ENCODING 172
SWIDTH 687 0
DWIDTH 10 0
BBX 8 5 2 1
BITMAP
FF
03
03
02
02
ENDCHAR
STARTCHAR hyphen
ENCODING 173
SWIDTH 289 0
DWIDTH 4 0
BBX 3 1 1 4
BITMAP
E0
ENDCHAR
STARTCHAR registered
ENCODING 174
SWIDTH 691 0
DWIDTH 10 0
BBX 6 7 3 3
BITMAP
38
44
BC
BC
EC
44
38
ENDCHAR
STARTCHAR macron
ENCODING 175
SWIDTH 663 0
DWIDTH 9 0
BBX 5 1 4 9
BITMAP
F8
ENDCHAR
STARTCHAR degree
ENCODING 176
SWIDTH 241 0
DWIDTH 3 0
BBX 1 2 3 8
BITMAP
80
80
ENDCHAR
STARTCHAR plusminus
ENCODING 177
SWIDTH 687 0
DWIDTH 10 0
BBX 9 8 1 0
BITMAP
0400
0400
0400
7F80
0800
0800
0000
FF00
ENDCHAR
STARTCHAR twosuperior
ENCODING 178
SWIDTH 539 0
DWIDTH 6 0
BBX 5 6 -8 4
BITMAP
78
08
18
20
40
F0
ENDCHAR
STARTCHAR threesuperior
ENCODING 179
SWIDTH 539 0
DWIDTH 6 0
BBX 5 6 -8 4
BITMAP
78
08
70
10
18
F0
ENDCHAR
STARTCHAR acute
ENCODING 180
SWIDTH 663 0
DWIDTH 9 0
BBX 4 1 5 9
BITMAP
F0
ENDCHAR
STARTCHAR mu
ENCODING 181
SWIDTH 681 0
DWIDTH 10 0
BBX 9 10 1 -3
BITMAP
3380
3380
7300
7700
6B00
7F00
7700
E000
E000
E000
ENDCHAR
STARTCHAR paragraph
ENCODING 182
SWIDTH 687 0
DWIDTH 10 0
BBX 6 13 3 -3
BITMAP
7C
FC
FC
E8
68
28
28
28
48
50
50
50
50
ENDCHAR
STARTCHAR periodcentered
ENCODING 183
SWIDTH 343 0
DWIDTH 10 0
BBX 2 1 5 4
BITMAP
C0
ENDCHAR
STARTCHAR cedilla
ENCODING 184
SWIDTH 663 0
DWIDTH 9 0
BBX 3 3 3 -3
BITMAP
60
20
E0
ENDCHAR
STARTCHAR onesuperior
ENCODING 185
SWIDTH 539 0
DWIDTH 6 0
BBX 3 6 -9 4
BITMAP
E0
60
40
40
C0
C0
ENDCHAR
STARTCHAR ordmasculine
ENCODING 186
SWIDTH 539 0
DWIDTH 8 0
BBX 7 5 2 5
BITMAP
3C
66
C6
CC
78
ENDCHAR
STARTCHAR guillemotright
ENCODING 187
SWIDTH 633 0
DWIDTH 9 0
BBX 8 7 1 0
BITMAP
2C
66
36
37
24
C8
88
ENDCHAR
STARTCHAR onequarter
ENCODING 188
SWIDTH 1089 0
DWIDTH 13 0
BBX 11 10 4 0
BITMAP
E060
6080
4100
4200
C660
CCE0
1940
13E0
2040
C0C0
ENDCHAR
STARTCHAR onehalf
ENCODING 189
SWIDTH 1089 0
DWIDTH 13 0
BBX 11 10 4 0
BITMAP
E060
6080
4100
4200
C7E0
CC20
1860
1080
2100
C3C0
ENDCHAR
STARTCHAR threequarters
ENCODING 190
SWIDTH 1149 0
DWIDTH 13 0
BBX 12 10 5 0
BITMAP
7830
0840
7080
1100
1B30
F670
0CA0
09F0
1020
6060
ENDCHAR
STARTCHAR questiondown
ENCODING 191
SWIDTH 539 0
DWIDTH 8 0
BBX 7 10 0 -3
BITMAP
0E
00
00
0C
1C
30
60
C0
E2
7E
ENDCHAR
STARTCHAR Agrave
ENCODING 192
SWIDTH 771 0
DWIDTH 11 0
BBX 10 12 0 0
BITMAP
0380
0000
0700
0700
0F80
0B80
1380
1180
3F80
61C0
41C0
C1C0
ENDCHAR
STARTCHAR Aacute
ENCODING 193
SWIDTH 771 0
DWIDTH 11 0
BBX 10 12 0 0
BITMAP
03C0
0000
0700
0700
0F80
0B80
1380
1180
3F80
61C0
41C0
C1C0
ENDCHAR
STARTCHAR Acircumflex
ENCODING 194
SWIDTH 771 0
DWIDTH 11 0
BBX 10 12 0 0
BITMAP
07C0
0000
0700
0700
0F80
0B80
1380
1180
3F80
61C0
41C0
C1C0
ENDCHAR
STARTCHAR Atilde
ENCODING 195
SWIDTH 771 0
DWIDTH 11 0
BBX 10 12 0 0
BITMAP
07C0
0000
0700
0700
0F80
0B80
1380
1180
3F80
61C0
41C0
C1C0
ENDCHAR
STARTCHAR Adieresis
ENCODING 196
SWIDTH 771 0
DWIDTH 11 0
BBX 10 12 0 0
BITMAP
06C0
0000
0700
0700
0F80
0B80
1380
1180
3F80
61C0
41C0
C1C0
ENDCHAR
STARTCHAR Aring
ENCODING 197
SWIDTH 771 0
DWIDTH 11 0
BBX 10 12 0 0
BITMAP
0300
0000
0700
0700
0F80
0B80
1380
1180
3F80
61C0
41C0
C1C0
ENDCHAR
STARTCHAR AE
ENCODING 198
SWIDTH 1004 0
DWIDTH 14 0
BBX 15 10 0 0
BITMAP
00FE
01C0
02C0
07C0
05F8
09C0
1F80
3180
6380
C3FC
ENDCHAR
STARTCHAR Ccedilla
ENCODING 199
SWIDTH 737 0
DWIDTH 10 0
BBX 10 13 1 -3
BITMAP
0FC0
1840
3000
6000
E000
C000
C000
E000
6180
3F00
1000
0800
3800
ENDCHAR
STARTCHAR Egrave
ENCODING 200
SWIDTH 642 0
DWIDTH 9 0
BBX 9 12 1 0
BITMAP
0E00
0000
3F80
3000
3000
7000
7E00
7000
6000
6000
E000
FF00
ENDCHAR
STARTCHAR Eacute
ENCODING 201
SWIDTH 642 0
DWIDTH 9 0
BBX 9 12 1 0
BITMAP
0F00
0000
3F80
3000
3000
7000
7E00
7000
6000
6000
E000
FF00
ENDCHAR
STARTCHAR Ecircumflex
ENCODING 202
SWIDTH 642 0
DWIDTH 9 0
BBX 9 12 1 0
BITMAP
1F00
0000
3F80
3000
3000
7000
7E00
7000
6000
6000
E000
FF00
ENDCHAR
STARTCHAR Edieresis
ENCODING 203
SWIDTH 642 0
DWIDTH 9 0
BBX 9 12 1 0
BITMAP
1B00
0000
3F80
3000
3000
7000
7E00
7000
6000
6000
E000
FF00
ENDCHAR
STARTCHAR Igrave
ENCODING 204
SWIDTH 361 0
DWIDTH 5 0
BBX 5 12 1 0
BITMAP
38
00
38
38
30
70
70
70
70
60
E0
E0
ENDCHAR
STARTCHAR Iacute
ENCODING 205
SWIDTH 361 0
DWIDTH 5 0
BBX 6 12 1 0
BITMAP
3C
00
38
38
30
70
70
70
70
60
E0
E0
ENDCHAR
STARTCHAR Icircumflex
ENCODING 206
SWIDTH 361 0
DWIDTH 5 0
BBX 6 12 1 0
BITMAP
7C
00
38
38
30
70
70
70
70
60
E0
E0
ENDCHAR
STARTCHAR Idieresis
ENCODING 207
SWIDTH 361 0
DWIDTH 5 0
BBX 6 12 1 0
BITMAP
6C
00
38
38
30
70
70
70
70
60
E0
E0
ENDCHAR
STARTCHAR Eth
ENCODING 208
SWIDTH 822 0
DWIDTH 12 0
BBX 11 10 1 0
BITMAP
3FC0
38E0
3860
3860
FE60
70E0
70C0
71C0
6380
FE00
ENDCHAR
STARTCHAR Ntilde
ENCODING 209
SWIDTH 789 0
DWIDTH 11 0
BBX 11 12 1 0
BITMAP
0F80
0000
3060
3860
38C0
6CC0
6CC0
66C0
66C0
6380
C380
C180
ENDCHAR
STARTCHAR Ograve
ENCODING 210
SWIDTH 855 0
DWIDTH 12 0
BBX 10 12 2 0
BITMAP
0700
0000
0F00
31C0
70C0
60C0
E0C0
C0C0
C180
E180
6300
3C00
ENDCHAR
STARTCHAR Oacute
ENCODING 211
SWIDTH 855 0
DWIDTH 12 0
BBX 10 12 2 0
BITMAP
0780
0000
0F00
31C0
70C0
60C0
E0C0
C0C0
C180
E180
6300
3C00
ENDCHAR
STARTCHAR Ocircumflex
ENCODING 212
SWIDTH 855 0
DWIDTH 12 0
BBX 10 12 2 0
BITMAP
0F80
0000
0F00
31C0
70C0
60C0
E0C0
C0C0
C180
E180
6300
3C00
ENDCHAR
STARTCHAR Otilde
ENCODING 213
SWIDTH 855 0
DWIDTH 12 0
BBX 10 12 2 0
BITMAP
0F80
0000
0F00
31C0
70C0
60C0
E0C0
C0C0
C180
E180
6300
3C00
ENDCHAR
STARTCHAR Odieresis
ENCODING 214
SWIDTH 855 0
DWIDTH 12 0
BBX 10 12 2 0
BITMAP
0D80
0000
0F00
31C0
70C0
60C0
E0C0
C0C0
C180
E180
6300
3C00
ENDCHAR
STARTCHAR multiply
ENCODING 215
SWIDTH 687 0
DWIDTH 10 0
BBX 9 8 1 0
BITMAP
6080
2180
1600
1C00
1C00
3400
C200
8300
ENDCHAR
STARTCHAR Oslash
ENCODING 216
SWIDTH 855 0
DWIDTH 12 0
BBX 13 10 3 0
BITMAP
07B8
18E0
38E0
31E0
7360
6660
6CC0
78C0
3180
FE00
ENDCHAR
STARTCHAR Ugrave
ENCODING 217
SWIDTH 759 0
DWIDTH 11 0
BBX 10 12 2 0
BITMAP
0E00
0000
70C0
71C0
6180
6180
E180
E180
C380
C300
E300
3E00
ENDCHAR
STARTCHAR Uacute
ENCODING 218
SWIDTH 759 0
DWIDTH 11 0
BBX 10 12 2 0
BITMAP
0F00
0000
70C0
71C0
6180
6180
E180
E180
C380
C300
E300
3E00
ENDCHAR
STARTCHAR Ucircumflex
ENCODING 219
SWIDTH 759 0
DWIDTH 11 0
BBX 10 12 2 0
BITMAP
1F00
0000
70C0
71C0
6180
6180
E180
E180
C380
C300
E300
3E00
ENDCHAR
STARTCHAR Udieresis
ENCODING 220
SWIDTH 759 0
DWIDTH 11 0
BBX 10 12 2 0
BITMAP
1B00
0000
70C0
71C0
6180
6180
E180
E180
C380
C300
E300
3E00
ENDCHAR
STARTCHAR Yacute
ENCODING 221
SWIDTH 681 0
DWIDTH 10 0
BBX 9 12 2 0
BITMAP
1E00
0000
E180
6200
6600
3400
3800
3800
3800
3000
7000
7000
ENDCHAR
STARTCHAR Thorn
ENCODING 222
SWIDTH 645 0
DWIDTH 9 0
BBX 9 10 1 0
BITMAP
3800
3000
3F00
7180
7180
7180
6300
7C00
E000
E000
ENDCHAR
STARTCHAR germandbls
ENCODING 223
SWIDTH 708 0
DWIDTH 10 0
BBX 9 13 1 -3
BITMAP
0F00
1B80
3B00
3600
3600
3700
7380
7380
6980
6F00
6000
E000
E000
ENDCHAR
STARTCHAR agrave
ENCODING 224
SWIDTH 681 0
DWIDTH 10 0
BBX 9 9 1 0
BITMAP
0E00
0000
1F80
3380
6700
C700
CF00
F700
6700
ENDCHAR
STARTCHAR aacute
ENCODING 225
SWIDTH 681 0
DWIDTH 10 0
BBX 9 9 1 0
BITMAP
0F00
0000
1F80
3380
6700
C700
CF00
F700
6700
ENDCHAR
STARTCHAR acircumflex
ENCODING 226
SWIDTH 681 0
DWIDTH 10 0
BBX 9 9 1 0
BITMAP
1F00
0000
1F80
3380
6700
C700
CF00
F700
6700
ENDCHAR
STARTCHAR atilde
ENCODING 227
SWIDTH 681 0
DWIDTH 10 0
BBX 9 9 1 0
BITMAP
1F00
0000
1F80
3380
6700
C700
CF00
F700
6700
ENDCHAR
STARTCHAR adieresis
ENCODING 228
SWIDTH 681 0
DWIDTH 10 0
BBX 9 9 1 0
BITMAP
1B00
0000
1F80
3380
6700
C700
CF00
F700
6700
ENDCHAR
STARTCHAR aring
ENCODING 229
SWIDTH 681 0
DWIDTH 10 0
BBX 9 9 1 0
BITMAP
0600
0000
1F80
3380
6700
C700
CF00
F700
6700
ENDCHAR
STARTCHAR ae
ENCODING 230
SWIDTH 987 0
DWIDTH 14 0
BBX 13 7 1 0
BITMAP
1FF0
3398
6730
CFE0
DB08
F318
63F0
ENDCHAR
STARTCHAR ccedilla
ENCODING 231
SWIDTH 548 0
DWIDTH 8 0
BBX 7 10 1 -3
BITMAP
1E
72
60
E0
C0
E4
78
20
10
70
ENDCHAR
STARTCHAR egrave
ENCODING 232
SWIDTH 612 0
DWIDTH 9 0
BBX 8 9 1 0
BITMAP
0E
00
1E
33
73
E6
FC
E1
7E
ENDCHAR
STARTCHAR eacute
ENCODING 233
SWIDTH 612 0
DWIDTH 9 0
BBX 8 9 1 0
BITMAP
0F
00
1E
33
73
E6
FC
E1
7E
ENDCHAR
STARTCHAR ecircumflex
ENCODING 234
SWIDTH 612 0
DWIDTH 9 0
BBX 8 9 1 0
BITMAP
1F
00
1E
33
73
E6
FC
E1
7E
ENDCHAR
STARTCHAR edieresis
ENCODING 235
SWIDTH 612 0
DWIDTH 9 0
BBX 8 9 1 0
BITMAP
1B
00
1E
33
73
E6
FC
E1
7E
ENDCHAR
STARTCHAR igrave
ENCODING 236
SWIDTH 343 0
DWIDTH 5 0
BBX 5 9 1 0
BITMAP
38
00
70
70
60
60
60
E0
E0
ENDCHAR
STARTCHAR iacute
ENCODING 237
SWIDTH 343 0
DWIDTH 5 0
BBX 6 9 1 0
BITMAP
3C
00
70
70
60
60
60
E0
E0
ENDCHAR
STARTCHAR icircumflex
ENCODING 238
SWIDTH 343 0
DWIDTH 5 0
BBX 6 9 1 0
BITMAP
7C
00
70
70
60
60
60
E0
E0
ENDCHAR
STARTCHAR idieresis
ENCODING 239
SWIDTH 343 0
DWIDTH 5 0
BBX 6 9 1 0
BITMAP
6C
00
70
70
60
60
60
E0
E0
ENDCHAR
STARTCHAR eth
ENCODING 240
SWIDTH 663 0
DWIDTH 9 0
BBX 7 12 2 0
BITMAP
04
0C
78
1C
26
3E
26
66
C6
C6
EC
78
ENDCHAR
STARTCHAR ntilde
ENCODING 241
SWIDTH 675 0
DWIDTH 9 0
BBX 9 9 1 0
BITMAP
0F80
0000
7380
7780
7B00
7300
7300
E300
E700
ENDCHAR
STARTCHAR ograve
ENCODING 242
SWIDTH 663 0
DWIDTH 9 0
BBX 8 9 2 0
BITMAP
0E
00
1E
66
67
C6
C6
CC
78
ENDCHAR
STARTCHAR oacute
ENCODING 243
SWIDTH 663 0
DWIDTH 9 0
BBX 8 9 2 0
BITMAP
0F
00
1E
66
67
C6
C6
CC
78
ENDCHAR
STARTCHAR ocircumflex
ENCODING 244
SWIDTH 663 0
DWIDTH 9 0
BBX 8 9 2 0
BITMAP
1F
00
1E
66
67
C6
C6
CC
78
ENDCHAR
STARTCHAR otilde
ENCODING 245
SWIDTH 663 0
DWIDTH 9 0
BBX 8 9 2 0
BITMAP
1F
00
1E
66
67
C6
C6
CC
78
ENDCHAR
STARTCHAR odieresis
ENCODING 246
SWIDTH 663 0
DWIDTH 9 0
BBX 8 9 2 0
BITMAP
1B
00
1E
66
67
C6
C6
CC
78
ENDCHAR
STARTCHAR divide
ENCODING 247
SWIDTH 687 0
DWIDTH 10 0
BBX 8 8 2 0
BITMAP
1C
00
00
FF
00
00
00
38
ENDCHAR
STARTCHAR oslash
ENCODING 248
SWIDTH 663 0
DWIDTH 9 0
BBX 10 7 3 0
BITMAP
0FC0
3300
3780
6F00
7B00
7600
FC00
ENDCHAR
STARTCHAR ugrave
ENCODING 249
SWIDTH 675 0
DWIDTH 9 0
BBX 9 9 1 0
BITMAP
0E00
0000
7380
6380
6700
6700
6F00
F700
E700
ENDCHAR
STARTCHAR uacute
ENCODING 250
SWIDTH 675 0
DWIDTH 9 0
BBX 9 9 1 0
BITMAP
0F00
0000
7380
6380
6700
6700
6F00
F700
E700
ENDCHAR
STARTCHAR ucircumflex
ENCODING 251
SWIDTH 675 0
DWIDTH 9 0
BBX 9 9 1 0
BITMAP
1F00
0000
7380
6380
6700
6700
6F00
F700
E700
ENDCHAR
STARTCHAR udieresis
ENCODING 252
SWIDTH 675 0
DWIDTH 9 0
BBX 9 9 1 0
BITMAP
1B00
0000
7380
6380
6700
6700
6F00
F700
E700
ENDCHAR
STARTCHAR yacute
ENCODING 253
SWIDTH 633 0
DWIDTH 9 0
BBX 10 12 0 -3
BITMAP
0780
0000
70C0
7180
3300
3A00
3C00
3C00
3800
1000
3000
E000
ENDCHAR
STARTCHAR thorn
ENCODING 254
SWIDTH 681 0
DWIDTH 10 0
BBX 9 13 1 -3
BITMAP
3800
3800
3800
3B80
3F80
7580
7980
7300
7200
7C00
E000
E000
E000
ENDCHAR
STARTCHAR ydieresis
ENCODING 255
SWIDTH 633 0
DWIDTH 9 0
BBX 10 12 0 -3
BITMAP
0D80
0000
70C0
7180
3300
3A00
3C00
3C00
3800
1000
3000
E000
ENDCHAR
STARTCHAR Amacron
ENCODING 256
SWIDTH 771 0
DWIDTH 11 0
BBX 10 12 0 0
BITMAP
0F80
0000
0700
0700
0F80
0B80
1380
1180
3F80
61C0
41C0
C1C0
ENDCHAR
STARTCHAR amacron
ENCODING 257
SWIDTH 681 0
DWIDTH 10 0
BBX 9 9 1 0
BITMAP
1F00
0000
1F80
3380
6700
C700
CF00
F700
6700
ENDCHAR
STARTCHAR Abreve
ENCODING 258
SWIDTH 771 0
DWIDTH 11 0
BBX 10 12 0 0
BITMAP
0F80
0000
0700
0700
0F80
0B80
1380
1180
3F80
61C0
41C0
C1C0
ENDCHAR
STARTCHAR abreve
ENCODING 259
SWIDTH 681 0
DWIDTH 10 0
BBX 9 9 1 0
BITMAP
1F00
0000
1F80
3380
6700
C700
CF00
F700
6700
ENDCHAR
STARTCHAR Aogonek
ENCODING 260
SWIDTH 771 0
DWIDTH 11 0
BBX 10 13 0 -3
BITMAP
0700
0700
0F80
0B80
1380
1180
3F80
61C0
41C0
C1C0
0000
0000
0E00
ENDCHAR
STARTCHAR aogonek
ENCODING 261
SWIDTH 681 0
DWIDTH 10 0
BBX 9 10 1 -3
BITMAP
1F80
3380
6700
C700
CF00
F700
6700
0000
0000
1C00
ENDCHAR
STARTCHAR Cacute
ENCODING 262
SWIDTH 737 0
DWIDTH 10 0
BBX 10 12 1 0
BITMAP
0F00
0000
0FC0
1840
3000
6000
E000
C000
C000
E000
6180
3F00
ENDCHAR
STARTCHAR cacute
ENCODING 263
SWIDTH 548 0
DWIDTH 8 0
BBX 7 9 1 0
BITMAP
3C
00
1E
72
60
E0
C0
E4
78
ENDCHAR
STARTCHAR Ccircumflex
ENCODING 264
SWIDTH 737 0
DWIDTH 10 0
BBX 10 12 1 0
BITMAP
1F00
0000
0FC0
1840
3000
6000
E000
C000
C000
E000
6180
3F00
ENDCHAR
STARTCHAR ccircumflex
ENCODING 265
SWIDTH 548 0
DWIDTH 8 0
BBX 7 9 1 0
BITMAP
3E
00
1E
72
60
E0
C0
E4
78
ENDCHAR
STARTCHAR Cdotaccent
ENCODING 266
SWIDTH 737 0
DWIDTH 10 0
BBX 10 12 1 0
BITMAP
0600
0000
0FC0
1840
3000
6000
E000
C000
C000
E000
6180
3F00
ENDCHAR
STARTCHAR cdotaccent
ENCODING 267
SWIDTH 548 0
DWIDTH 8 0
BBX 7 9 1 0
BITMAP
18
00
1E
72
60
E0
C0
E4
78
ENDCHAR
STARTCHAR Ccaron
ENCODING 268
SWIDTH 737 0
DWIDTH 10 0
BBX 10 12 1 0
BITMAP
1F00
0000
0FC0
1840
3000
6000
E000
C000
C000
E000
6180
3F00
ENDCHAR
STARTCHAR ccaron
ENCODING 269
SWIDTH 548 0
DWIDTH 8 0
BBX 7 9 1 0
BITMAP
3E
00
1E
72
60
E0
C0
E4
78
ENDCHAR
STARTCHAR Dcaron
ENCODING 270
SWIDTH 822 0
DWIDTH 12 0
BBX 11 12 1 0
BITMAP
1F00
0000
3FC0
38E0
7860
7060
7060
70E0
70C0
E1C0
E380
FE00
ENDCHAR
STARTCHAR dcaron
ENCODING 271
SWIDTH 912 0
DWIDTH 14 0
BBX 15 10 1 0
BITMAP
038E
039E
030C
1F1C
3700
6700
CF00
DE00
F600
6E00
ENDCHAR
STARTCHAR Dcroat
ENCODING 272
SWIDTH 822 0
DWIDTH 12 0
BBX 11 10 1 0
BITMAP
3FC0
38E0
3860
3860
FE60
70E0
70C0
71C0
6380
FE00
ENDCHAR
STARTCHAR dcroat
ENCODING 273
SWIDTH 681 0
DWIDTH 10 0
BBX 9 10 1 0
BITMAP
0380
0F80
0300
1F00
3700
6700
CF00
DE00
F600
6E00
ENDCHAR
STARTCHAR Emacron
ENCODING 274
SWIDTH 642 0
DWIDTH 9 0
BBX 9 12 1 0
BITMAP
3E00
0000
3F80
3000
3000
7000
7E00
7000
6000
6000
E000
FF00
ENDCHAR
STARTCHAR emacron
ENCODING 275
SWIDTH 612 0
DWIDTH 9 0
BBX 8 9 1 0
BITMAP
3E
00
1E
33
73
E6
FC
E1
7E
ENDCHAR
STARTCHAR Ebreve
ENCODING 276
SWIDTH 642 0
DWIDTH 9 0
BBX 9 12 1 0
BITMAP
3E00
0000
3F80
3000
3000
7000
7E00
7000
6000
6000
E000
FF00
ENDCHAR
STARTCHAR ebreve
ENCODING 277
SWIDTH 612 0
DWIDTH 9 0
BBX 8 9 1 0
BITMAP
3E
00
1E
33
73
E6
FC
E1
7E
ENDCHAR
STARTCHAR Edotaccent
ENCODING 278
SWIDTH 642 0
DWIDTH 9 0
BBX 9 12 1 0
BITMAP
0C00
0000
3F80
3000
3000
7000
7E00
7000
6000
6000
E000
FF00
ENDCHAR
STARTCHAR edotaccent
ENCODING 279
SWIDTH 612 0
DWIDTH 9 0
BBX 8 9 1 0
BITMAP
0C
00
1E
33
73
E6
FC
E1
7E
ENDCHAR
STARTCHAR Eogonek
ENCODING 280
SWIDTH 642 0
DWIDTH 9 0
BBX 9 13 1 -3
BITMAP
3F80
3000
3000
7000
7E00
7000
6000
6000
E000
FF00
0000
0000
3800
ENDCHAR
STARTCHAR eogonek
ENCODING 281
SWIDTH 612 0
DWIDTH 9 0
BBX 8 10 1 -3
BITMAP
1E
33
73
E6
FC
E1
7E
00
00
38
ENDCHAR
STARTCHAR Ecaron
ENCODING 282
SWIDTH 642 0
DWIDTH 9 0
BBX 9 12 1 0
BITMAP
3E00
0000
3F80
3000
3000
7000
7E00
7000
6000
6000
E000
FF00
ENDCHAR
STARTCHAR ecaron
ENCODING 283
SWIDTH 612 0
DWIDTH 9 0
BBX 8 9 1 0
BITMAP
3E
00
1E
33
73
E6
FC
E1
7E
ENDCHAR
STARTCHAR Gcircumflex
ENCODING 284
SWIDTH 755 0
DWIDTH 11 0
BBX 10 12 1 0
BITMAP
1F00
0000
0FC0
1840
3000
6000
E000
C000
C380
E380
6300
3F00
ENDCHAR
STARTCHAR gcircumflex
ENCODING 285
SWIDTH 674 0
DWIDTH 9 0
BBX 9 12 1 -3
BITMAP
1F00
0000
0F80
3380
6300
6700
EB00
F300
6700
0600
8600
F800
ENDCHAR
STARTCHAR Gbreve
ENCODING 286
SWIDTH 755 0
DWIDTH 11 0
BBX 10 12 1 0
BITMAP
1F00
0000
0FC0
1840
3000
6000
E000
C000
C380
E380
6300
3F00
ENDCHAR
STARTCHAR gbreve
ENCODING 287
SWIDTH 674 0
DWIDTH 9 0
BBX 9 12 1 -3
BITMAP
1F00
0000
0F80
3380
6300
6700
EB00
F300
6700
0600
8600
F800
ENDCHAR
STARTCHAR Gdotaccent
ENCODING 288
SWIDTH 755 0
DWIDTH 11 0
BBX 10 12 1 0
BITMAP
0600
0000
0FC0
1840
3000
6000
E000
C000
C380
E380
6300
3F00
ENDCHAR
STARTCHAR gdotaccent
ENCODING 289
SWIDTH 674 0
DWIDTH 9 0
BBX 9 12 1 -3
BITMAP
0C00
0000
0F80
3380
6300
6700
EB00
F300
6700
0600
8600
F800
ENDCHAR
STARTCHAR Gcommaaccent
ENCODING 290
SWIDTH 755 0
DWIDTH 11 0
BBX 10 16 1 -6
BITMAP
0FC0
1840
3000
6000
E000
C000
C380
E380
6300
3F00
0000
0E00
1E00
0600
0C00
1800
ENDCHAR
STARTCHAR gcommaaccent
ENCODING 291
SWIDTH 674 0
DWIDTH 9 0
BBX 9 15 1 -3
BITMAP
0E00
0800
1E00
1C00
0000
0F80
3380
6300
6700
EB00
F300
6700
0600
8600
F800
ENDCHAR
STARTCHAR Hcircumflex
ENCODING 292
SWIDTH 813 0
DWIDTH 11 0
BBX 11 12 1 0
BITMAP
0F80
0000
38E0
30E0
70E0
70C0
7FC0
61C0
61C0
E1C0
E180
E380
ENDCHAR
STARTCHAR hcircumflex
ENCODING 293
SWIDTH 675 0
DWIDTH 9 0
BBX 9 12 1 0
BITMAP
7C00
0000
3800
3800
3800
7380
7780
7B00
7300
7300
E300
E700
ENDCHAR
STARTCHAR Hbar
ENCODING 294
SWIDTH 813 0
DWIDTH 11 0
BBX 11 10 1 0
BITMAP
38E0
30E0
FFE0
70C0
7FC0
61C0
61C0
E1C0
E180
E380
ENDCHAR
STARTCHAR hbar
ENCODING 295
SWIDTH 675 0
DWIDTH 9 0
BBX 9 10 1 0
BITMAP
3800
F800
3800
7380
7780
7B00
7300
7300
E300
E700
ENDCHAR
STARTCHAR Itilde
ENCODING 296
SWIDTH 361 0
DWIDTH 5 0
BBX 6 12 1 0
BITMAP
7C
00
38
38
30
70
70
70
70
60
E0
E0
ENDCHAR
STARTCHAR itilde
ENCODING 297
SWIDTH 343 0
DWIDTH 5 0
BBX 5 9 1 0
BITMAP
F8
00
70
70
60
60
60
E0
E0
ENDCHAR
STARTCHAR Imacron
ENCODING 298
SWIDTH 361 0
DWIDTH 5 0
BBX 6 12 1 0
BITMAP
7C
00
38
38
30
70
70
70
70
60
E0
E0
ENDCHAR
STARTCHAR imacron
ENCODING 299
SWIDTH 343 0
DWIDTH 5 0
BBX 5 9 1 0
BITMAP
F8
00
70
70
60
60
60
E0
E0
ENDCHAR
STARTCHAR Ibreve
ENCODING 300
SWIDTH 361 0
DWIDTH 5 0
BBX 6 12 1 0
BITMAP
7C
00
38
38
30
70
70
70
70
60
E0
E0
ENDCHAR
STARTCHAR ibreve
ENCODING 301
SWIDTH 343 0
DWIDTH 5 0
BBX 5 9 1 0
BITMAP
F8
00
70
70
60
60
60
E0
E0
ENDCHAR
STARTCHAR Iogonek
ENCODING 302
SWIDTH 361 0
DWIDTH 5 0
BBX 5 13 1 -3
BITMAP
38
38
30
70
70
70
70
60
E0
E0
00
00
E0
ENDCHAR
STARTCHAR iogonek
ENCODING 303
SWIDTH 343 0
DWIDTH 5 0
BBX 5 13 1 -3
BITMAP
38
00
00
70
70
70
70
60
E0
E0
00
00
E0
ENDCHAR
STARTCHAR Idotaccent
ENCODING 304
SWIDTH 361 0
DWIDTH 5 0
BBX 5 12 1 0
BITMAP
30
00
38
38
30
70
70
70
70
60
E0
E0
ENDCHAR
STARTCHAR dotlessi
ENCODING 305
SWIDTH 343 0
DWIDTH 5 0
BBX 4 7 1 0
BITMAP
70
70
60
60
60
E0
E0
ENDCHAR
STARTCHAR IJ
ENCODING 306
SWIDTH 845 0
DWIDTH 12 0
BBX 12 13 1 -3
BITMAP
3870
3870
3070
7060
7060
70E0
70E0
60E0
E0C0
E0C0
01C0
01C0
0F00
ENDCHAR
STARTCHAR ij
ENCODING 307
SWIDTH 733 0
DWIDTH 11 0
BBX 12 13 1 -3
BITMAP
3870
0000
0000
7060
7060
70E0
70C0
60C0
E0C0
E0C0
01C0
0180
0F00
ENDCHAR
STARTCHAR Jcircumflex
ENCODING 308
SWIDTH 502 0
DWIDTH 7 0
BBX 8 15 0 -3
BITMAP
1F
00
07
07
07
06
06
0E
0E
0E
0C
0C
1C
1C
F0
ENDCHAR
STARTCHAR jcircumflex
ENCODING 309
SWIDTH 407 0
DWIDTH 6 0
BBX 8 12 0 -3
BITMAP
1F
00
06
06
0E
0C
0C
0C
0C
1C
18
F0
ENDCHAR
STARTCHAR Kcommaaccent
ENCODING 310
SWIDTH 753 0
DWIDTH 11 0
BBX 10 16 1 -6
BITMAP
38C0
3900
3200
7600
7400
7E00
7600
6700
E300
E180
0000
1C00
3C00
0C00
1800
3000
ENDCHAR
STARTCHAR kcommaaccent
ENCODING 311
SWIDTH 666 0
DWIDTH 9 0
BBX 9 16 1 -6
BITMAP
3800
3000
3000
7180
7200
7400
7C00
6E00
E600
E700
0000
1C00
3C00
0C00
1800
3000
ENDCHAR
STARTCHAR kgreenlandic
ENCODING 312
SWIDTH 666 0
DWIDTH 9 0
BBX 9 7 1 0
BITMAP
7180
7200
7400
7C00
6E00
E600
E700
ENDCHAR
STARTCHAR Lacute
ENCODING 313
SWIDTH 623 0
DWIDTH 9 0
BBX 8 12 1 0
BITMAP
3C
00
38
38
30
70
70
70
70
60
E0
FF
ENDCHAR
STARTCHAR lacute
ENCODING 314
SWIDTH 343 0
DWIDTH 5 0
BBX 5 12 1 0
BITMAP
78
00
38
38
30
70
70
70
70
60
E0
E0
ENDCHAR
STARTCHAR Lcommaaccent
ENCODING 315
SWIDTH 623 0
DWIDTH 9 0
BBX 8 16 1 -6
BITMAP
38
38
30
70
70
70
70
60
E0
FF
00
38
78
18
30
60
ENDCHAR
STARTCHAR lcommaaccent
ENCODING 316
SWIDTH 343 0
DWIDTH 5 0
BBX 5 16 1 -6
BITMAP
38
38
30
70
70
70
70
60
E0
E0
00
70
F0
30
60
C0
ENDCHAR
STARTCHAR Lcaron
ENCODING 317
SWIDTH 857 0
DWIDTH 13 0
BBX 14 10 1 0
BITMAP
381C
383C
3018
7038
7000
7000
7000
6000
E000
FF00
ENDCHAR
STARTCHAR lcaron
ENCODING 318
SWIDTH 591 0
DWIDTH 9 0
BBX 10 10 1 0
BITMAP
39C0
3BC0
3180
7380
7000
7000
7000
6000
E000
E000
ENDCHAR
STARTCHAR Ldot
ENCODING 319
SWIDTH 935 0
DWIDTH 19 0
BBX 15 10 1 0
BITMAP
3800
3800
3000
7000
7000
7006
7000
6000
E000
FF00
ENDCHAR
STARTCHAR ldot
ENCODING 320
SWIDTH 669 0
DWIDTH 15 0
BBX 11 10 1 0
BITMAP
3800
3800
3000
7000
7000
7060
7000
6000
E000
E000
ENDCHAR
STARTCHAR Lslash
ENCODING 321
SWIDTH 623 0
DWIDTH 9 0
BBX 8 10 1 0
BITMAP
18
38
38
3C
3C
70
F0
F0
70
7F
ENDCHAR
STARTCHAR lslash
ENCODING 322
SWIDTH 343 0
DWIDTH 5 0
BBX 6 10 1 0
BITMAP
18
38
3C
3C
38
F0
F0
70
60
60
ENDCHAR
STARTCHAR Nacute
ENCODING 323
SWIDTH 789 0
DWIDTH 11 0
BBX 11 12 1 0
BITMAP
0F00
0000
3060
3860
38C0
6CC0
6CC0
66C0
66C0
6380
C380
C180
ENDCHAR
STARTCHAR nacute
ENCODING 324
SWIDTH 675 0
DWIDTH 9 0
BBX 9 9 1 0
BITMAP
1E00
0000
7380
7780
7B00
7300
7300
E300
E700
ENDCHAR
STARTCHAR Ncommaaccent
ENCODING 325
SWIDTH 789 0
DWIDTH 11 0
BBX 11 16 1 -6
BITMAP
3060
3860
38C0
6CC0
6CC0
66C0
66C0
6380
C380
C180
0000
0E00
1E00
0600
0C00
1800
ENDCHAR
STARTCHAR ncommaaccent
ENCODING 326
SWIDTH 675 0
DWIDTH 9 0
BBX 9 13 1 -6
BITMAP
7380
7780
7B00
7300
7300
E300
E700
0000
1C00
3C00
0C00
1800
3000
ENDCHAR
STARTCHAR Ncaron
ENCODING 327
SWIDTH 789 0
DWIDTH 11 0
BBX 11 12 1 0
BITMAP
1F00
0000
3060
3860
38C0
6CC0
6CC0
66C0
66C0
6380
C380
C180
ENDCHAR
STARTCHAR ncaron
ENCODING 328
SWIDTH 675 0
DWIDTH 9 0
BBX 9 9 1 0
BITMAP
3E00
0000
7380
7780
7B00
7300
7300
E300
E700
ENDCHAR
STARTCHAR napostrophe
ENCODING 329
SWIDTH 927 0
DWIDTH 13 0
BBX 12 10 2 0
BITMAP
7000
F000
6000
EE70
0EF0
0F60
0E60
0E60
1C60
1CE0
ENDCHAR
STARTCHAR Eng
ENCODING 330
SWIDTH 789 0
DWIDTH 11 0
BBX 11 13 1 -3
BITMAP
3060
3860
38C0
6CC0
6CC0
66C0
66C0
6380
C380
C180
0380
0300
1E00
ENDCHAR
STARTCHAR eng
ENCODING 331
SWIDTH 675 0
DWIDTH 9 0
BBX 9 10 1 -3
BITMAP
7380
7780
7B00
7300
7300
E300
E300
0700
0600
3C00
ENDCHAR
STARTCHAR Omacron
ENCODING 332
SWIDTH 855 0
DWIDTH 12 0
BBX 10 12 2 0
BITMAP
1F00
0000
0F00
31C0
70C0
60C0
E0C0
C0C0
C180
E180
6300
3C00
ENDCHAR
STARTCHAR omacron
ENCODING 333
SWIDTH 663 0
DWIDTH 9 0
BBX 8 9 2 0
BITMAP
3E
00
1E
66
67
C6
C6
CC
78
ENDCHAR
STARTCHAR Obreve
ENCODING 334
SWIDTH 855 0
DWIDTH 12 0
BBX 10 12 2 0
BITMAP
1F00
0000
0F00
31C0
70C0
60C0
E0C0
C0C0
C180
E180
6300
3C00
ENDCHAR
STARTCHAR obreve
ENCODING 335
SWIDTH 663 0
DWIDTH 9 0
BBX 8 9 2 0
BITMAP
3E
00
1E
66
67
C6
C6
CC
78
ENDCHAR
STARTCHAR Ohungarumlaut
ENCODING 336
SWIDTH 855 0
DWIDTH 12 0
BBX 10 12 2 0
BITMAP
1F80
0000
0F00
31C0
70C0
60C0
E0C0
C0C0
C180
E180
6300
3C00
ENDCHAR
STARTCHAR ohungarumlaut
ENCODING 337
SWIDTH 663 0
DWIDTH 9 0
BBX 8 9 2 0
BITMAP
7E
00
1E
66
67
C6
C6
CC
78
ENDCHAR
STARTCHAR OE
ENCODING 338
SWIDTH 1103 0
DWIDTH 15 0
BBX 15 10 1 0
BITMAP
0FFE
31C0
71C0
61C0
E1F8
C1C0
C3C0
E380
6380
3FFC
ENDCHAR
STARTCHAR oe
ENCODING 339
SWIDTH 1004 0
DWIDTH 14 0
BBX 13 7 1 0
BITMAP
1FF0
2798
67B0
C7E0
C708
CF98
7FF0
ENDCHAR
STARTCHAR Racute
ENCODING 340
SWIDTH 708 0
DWIDTH 10 0
BBX 9 12 1 0
BITMAP
1E00
0000
3F80
3180
7180
7380
7F00
7C00
6600
E600
E600
E300
ENDCHAR
STARTCHAR racute
ENCODING 341
SWIDTH 542 0
DWIDTH 8 0
BBX 8 9 1 0
BITMAP
3C
00
77
7E
70
70
60
E0
E0
ENDCHAR
STARTCHAR Rcommaaccent
ENCODING 342
SWIDTH 708 0
DWIDTH 10 0
BBX 9 16 1 -6
BITMAP
3F80
3180
7180
7380
7F00
7C00
6600
E600
E600
E300
0000
1C00
3C00
0C00
1800
3000
ENDCHAR
STARTCHAR rcommaaccent
ENCODING 343
SWIDTH 542 0
DWIDTH 8 0
BBX 8 13 1 -6
BITMAP
77
7E
70
70
60
E0
E0
00
70
F0
30
60
C0
ENDCHAR
STARTCHAR Rcaron
ENCODING 344
SWIDTH 708 0
DWIDTH 10 0
BBX 9 12 1 0
BITMAP
1F00
0000
3F80
3180
7180
7380
7F00
7C00
6600
E600
E600
E300
ENDCHAR
STARTCHAR rcaron
ENCODING 345
SWIDTH 542 0
DWIDTH 8 0
BBX 8 9 1 0
BITMAP
3E
00
77
7E
70
70
60
E0
E0
ENDCHAR
STARTCHAR Sacute
ENCODING 346
SWIDTH 639 0
DWIDTH 9 0
BBX 8 12 1 0
BITMAP
3C
00
1F
31
70
78
3C
1E
0E
06
86
F8
ENDCHAR
STARTCHAR sacute
ENCODING 347
SWIDTH 527 0
DWIDTH 7 0
BBX 7 9 1 0
BITMAP
3C
00
1E
32
78
3C
1C
8C
F8
ENDCHAR
STARTCHAR Scircumflex
ENCODING 348
SWIDTH 639 0
DWIDTH 9 0
BBX 8 12 1 0
BITMAP
3E
00
1F
31
70
78
3C
1E
0E
06
86
F8
ENDCHAR
STARTCHAR scircumflex
ENCODING 349
SWIDTH 527 0
DWIDTH 7 0
BBX 7 9 1 0
BITMAP
3E
00
1E
32
78
3C
1C
8C
F8
ENDCHAR
STARTCHAR Scedilla
ENCODING 350
SWIDTH 639 0
DWIDTH 9 0
BBX 8 13 1 -3
BITMAP
1F
31
70
78
3C
1E
0E
06
86
F8
18
08
38
ENDCHAR
STARTCHAR scedilla
ENCODING 351
SWIDTH 527 0
DWIDTH 7 0
BBX 7 10 1 -3
BITMAP
1E
32
78
3C
1C
8C
F8
30
10
70
ENDCHAR
STARTCHAR Scaron
ENCODING 352
SWIDTH 639 0
DWIDTH 9 0
BBX 8 12 1 0
BITMAP
1F
00
1F
31
70
78
3C
1E
0E
06
86
F8
ENDCHAR
STARTCHAR scaron
ENCODING 353
SWIDTH 527 0
DWIDTH 7 0
BBX 8 9 1 0
BITMAP
1F
00
1E
32
78
3C
1C
8C
F8
ENDCHAR
STARTCHAR Tcommaaccent
ENCODING 354
SWIDTH 747 0
DWIDTH 10 0
BBX 10 13 2 -3
BITMAP
FFC0
1C00
1C00
1C00
1800
1800
1800
3800
3800
3800
1800
0800
3800
ENDCHAR
STARTCHAR tcommaaccent
ENCODING 355
SWIDTH 437 0
DWIDTH 6 0
BBX 5 12 2 -3
BITMAP
70
70
F8
60
60
E0
C0
F0
70
60
20
E0
ENDCHAR
STARTCHAR Tcaron
ENCODING 356
SWIDTH 747 0
DWIDTH 10 0
BBX 10 12 2 0
BITMAP
3E00
0000
FFC0
1C00
1C00
1C00
1800
1800
1800
3800
3800
3800
ENDCHAR
STARTCHAR tcaron
ENCODING 357
SWIDTH 680 0
DWIDTH 10 0
BBX 10 10 2 0
BITMAP
01C0
73C0
7180
FB80
6000
6000
E000
C000
F000
7000
ENDCHAR
STARTCHAR Tbar
ENCODING 358
SWIDTH 747 0
DWIDTH 10 0
BBX 10 10 2 0
BITMAP
FFC0
1C00
1C00
1C00
1F00
1800
1800
3800
3800
3800
ENDCHAR
STARTCHAR tbar
ENCODING 359
SWIDTH 437 0
DWIDTH 6 0
BBX 5 9 2 0
BITMAP
70
70
F8
60
60
F8
C0
F0
70
ENDCHAR
STARTCHAR Utilde
ENCODING 360
SWIDTH 759 0
DWIDTH 11 0
BBX 10 12 2 0
BITMAP
1F00
0000
70C0
71C0
6180
6180
E180
E180
C380
C300
E300
3E00
ENDCHAR
STARTCHAR utilde
ENCODING 361
SWIDTH 675 0
DWIDTH 9 0
BBX 9 9 1 0
BITMAP
3E00
0000
7380
6380
6700
6700
6F00
F700
E700
ENDCHAR
STARTCHAR Umacron
ENCODING 362
SWIDTH 759 0
DWIDTH 11 0
BBX 10 12 2 0
BITMAP
1F00
0000
70C0
71C0
6180
6180
E180
E180
C380
C300
E300
3E00
ENDCHAR
STARTCHAR umacron
ENCODING 363
SWIDTH 675 0
DWIDTH 9 0
BBX 9 9 1 0
BITMAP
3E00
0000
7380
6380
6700
6700
6F00
F700
E700
ENDCHAR
STARTCHAR Ubreve
ENCODING 364
SWIDTH 759 0
DWIDTH 11 0
BBX 10 12 2 0
BITMAP
1F00
0000
70C0
71C0
6180
6180
E180
E180
C380
C300
E300
3E00
ENDCHAR
STARTCHAR ubreve
ENCODING 365
SWIDTH 675 0
DWIDTH 9 0
BBX 9 9 1 0
BITMAP
3E00
0000
7380
6380
6700
6700
6F00
F700
E700
ENDCHAR
STARTCHAR Uring
ENCODING 366
SWIDTH 759 0
DWIDTH 11 0
BBX 10 12 2 0
BITMAP
0C00
0000
70C0
71C0
6180
6180
E180
E180
C380
C300
E300
3E00
ENDCHAR
STARTCHAR uring
ENCODING 367
SWIDTH 675 0
DWIDTH 9 0
BBX 9 9 1 0
BITMAP
0C00
0000
7380
6380
6700
6700
6F00
F700
E700
ENDCHAR
STARTCHAR Uhungarumlaut
ENCODING 368
SWIDTH 759 0
DWIDTH 11 0
BBX 10 12 2 0
BITMAP
3F00
0000
70C0
71C0
6180
6180
E180
E180
C380
C300
E300
3E00
ENDCHAR
STARTCHAR uhungarumlaut
ENCODING 369
SWIDTH 675 0
DWIDTH 9 0
BBX 9 9 1 0
BITMAP
3F00
0000
7380
6380
6700
6700
6F00
F700
E700
ENDCHAR
STARTCHAR Uogonek
ENCODING 370
SWIDTH 759 0
DWIDTH 11 0
BBX 10 13 2 -3
BITMAP
70C0
71C0
6180
6180
E180
E180
C380
C300
E300
3E00
0000
0000
1C00
ENDCHAR
STARTCHAR uogonek
ENCODING 371
SWIDTH 675 0
DWIDTH 9 0
BBX 9 10 1 -3
BITMAP
7380
6380
6700
6700
6F00
F700
E700
0000
0000
1C00
ENDCHAR
STARTCHAR Wcircumflex
ENCODING 372
SWIDTH 991 0
DWIDTH 14 0
BBX 12 12 2 0
BITMAP
1F00
0000
C610
C630
CE20
CE60
CE40
D6C0
D680
E780
E700
E700
ENDCHAR
STARTCHAR wcircumflex
ENCODING 373
SWIDTH 878 0
DWIDTH 12 0
BBX 12 9 2 0
BITMAP
1F00
0000
C630
C620
CA40
DB40
D380
E380
E300
ENDCHAR
STARTCHAR Ycircumflex
ENCODING 374
SWIDTH 681 0
DWIDTH 10 0
BBX 9 12 2 0
BITMAP
3E00
0000
E180
6200
6600
3400
3800
3800
3800
3000
7000
7000
ENDCHAR
STARTCHAR ycircumflex
ENCODING 375
SWIDTH 633 0
DWIDTH 9 0
BBX 10 12 0 -3
BITMAP
3E00
0000
70C0
7180
3300
3A00
3C00
3C00
3800
1000
3000
E000
ENDCHAR
STARTCHAR Ydieresis
ENCODING 376
SWIDTH 681 0
DWIDTH 10 0
BBX 9 12 2 0
BITMAP
3600
0000
E180
6200
6600
3400
3800
3800
3800
3000
7000
7000
ENDCHAR
STARTCHAR Zacute
ENCODING 377
SWIDTH 687 0
DWIDTH 10 0
BBX 10 12 1 0
BITMAP
0F00
0000
3FC0
0180
0300
0700
0E00
1C00
3800
3000
6000
FF00
ENDCHAR
STARTCHAR zacute
ENCODING 378
SWIDTH 630 0
DWIDTH 9 0
BBX 9 9 0 0
BITMAP
1E00
0000
7F80
0300
0E00
1C00
3000
6000
FF00
ENDCHAR
STARTCHAR Zdotaccent
ENCODING 379
SWIDTH 687 0
DWIDTH 10 0
BBX 10 12 1 0
BITMAP
0600
0000
3FC0
0180
0300
0700
0E00
1C00
3800
3000
6000
FF00
ENDCHAR
STARTCHAR zdotaccent
ENCODING 380
SWIDTH 630 0
DWIDTH 9 0
BBX 9 9 0 0
BITMAP
0C00
0000
7F80
0300
0E00
1C00
3000
6000
FF00
ENDCHAR
STARTCHAR Zcaron
ENCODING 381
SWIDTH 687 0
DWIDTH 10 0
BBX 10 12 1 0
BITMAP
0F80
0000
3FC0
0180
0300
0700
0E00
1C00
3800
3000
6000
FF00
ENDCHAR
STARTCHAR zcaron
ENCODING 382
SWIDTH 630 0
DWIDTH 9 0
BBX 9 9 0 0
BITMAP
0F80
0000
7F80
0300
0E00
1C00
3000
6000
FF00
ENDCHAR
STARTCHAR uni0186
ENCODING 390
SWIDTH 737 0
DWIDTH 10 0
BBX 10 10 1 0
BITMAP
3F00
6180
01C0
00C0
00C0
01C0
0180
0300
8600
FC00
ENDCHAR
STARTCHAR uni0189
ENCODING 393
SWIDTH 822 0
DWIDTH 12 0
BBX 11 10 1 0
BITMAP
3FC0
38E0
3860
3860
FE60
70E0
70C0
71C0
6380
FE00
ENDCHAR
STARTCHAR uni018E
ENCODING 398
SWIDTH 642 0
DWIDTH 9 0
BBX 9 10 1 0
BITMAP
7F80
0380
0300
0300
0700
3F00
0700
0600
0600
FE00
ENDCHAR
STARTCHAR florin
ENCODING 402
SWIDTH 687 0
DWIDTH 10 0
BBX 8 13 3 -3
BITMAP
0F
18
38
30
FC
70
70
70
60
60
E0
E0
E0
ENDCHAR
STARTCHAR uni0197
ENCODING 407
SWIDTH 361 0
DWIDTH 5 0
BBX 5 10 1 0
BITMAP
38
38
30
70
F8
70
70
60
E0
E0
ENDCHAR
STARTCHAR uni019A
ENCODING 410
SWIDTH 343 0
DWIDTH 5 0
BBX 5 10 1 0
BITMAP
38
38
30
70
F8
70
70
60
E0
E0
ENDCHAR
STARTCHAR uni019D
ENCODING 413
SWIDTH 789 0
DWIDTH 11 0
BBX 14 13 -2 -3
BITMAP
060C
070C
0718
0D98
0D98
0CD8
0CD8
0C70
0C70
0C30
1C00
1800
F000
ENDCHAR
STARTCHAR uni019F
ENCODING 415
SWIDTH 855 0
DWIDTH 12 0
BBX 10 10 2 0
BITMAP
0F00
31C0
70C0
60C0
FFC0
C0C0
C180
E180
6300
3C00
ENDCHAR
STARTCHAR Ohorn
ENCODING 416
SWIDTH 855 0
DWIDTH 12 0
BBX 13 10 2 0
BITMAP
0F38
31F8
70F0
60F0
E0C0
C0C0
C180
E180
6300
3C00
ENDCHAR
STARTCHAR ohorn
ENCODING 417
SWIDTH 663 0
DWIDTH 9 0
BBX 12 7 2 0
BITMAP
1E70
66F0
6760
C6E0
C600
CC00
7800
ENDCHAR
STARTCHAR Uhorn
ENCODING 431
SWIDTH 759 0
DWIDTH 11 0
BBX 13 10 2 0
BITMAP
70F8
71F8
61B0
61F0
E180
E180
C380
C300
E300
3E00
ENDCHAR
STARTCHAR uhorn
ENCODING 432
SWIDTH 675 0
DWIDTH 9 0
BBX 12 7 1 0
BITMAP
73F0
63F0
6760
67E0
6F00
F700
E700
ENDCHAR
STARTCHAR uni01B5
ENCODING 437
SWIDTH 687 0
DWIDTH 10 0
BBX 10 10 1 0
BITMAP
3FC0
0180
0300
0700
1F00
1C00
3800
3000
6000
FF00
ENDCHAR
STARTCHAR uni01B6
ENCODING 438
SWIDTH 630 0
DWIDTH 9 0
BBX 9 7 0 0
BITMAP
7F80
0300
0E00
3E00
3000
6000
FF00
ENDCHAR
STARTCHAR uni01BB
ENCODING 443
SWIDTH 687 0
DWIDTH 10 0
BBX 9 10 1 0
BITMAP
3F00
2380
0180
0380
FF80
0C00
1800
3000
E000
FF00
ENDCHAR
STARTCHAR uni01BC
ENCODING 444
SWIDTH 687 0
DWIDTH 10 0
BBX 9 10 2 0
BITMAP
3F80
2000
2000
7C00
0E00
0700
0700
0700
8600
FC00
ENDCHAR
STARTCHAR uni01C0
ENCODING 448
SWIDTH 259 0
DWIDTH 4 0
BBX 4 13 1 -3
BITMAP
10
10
20
20
20
20
60
40
40
40
40
80
80
ENDCHAR
STARTCHAR uni01C2
ENCODING 450
SWIDTH 687 0
DWIDTH 10 0
BBX 9 13 1 -3
BITMAP
0200
0200
0400
0400
7F80
0400
0C00
0800
FF00
0800
0800
1000
1000
ENDCHAR
STARTCHAR uni01C3
ENCODING 451
SWIDTH 343 0
DWIDTH 5 0
BBX 5 10 1 0
BITMAP
38
38
30
30
70
60
60
00
00
E0
ENDCHAR
STARTCHAR uni01CD
ENCODING 461
SWIDTH 771 0
DWIDTH 11 0
BBX 10 12 0 0
BITMAP
0F80
0000
0700
0700
0F80
0B80
1380
1180
3F80
61C0
41C0
C1C0
ENDCHAR
STARTCHAR uni01CE
ENCODING 462
SWIDTH 681 0
DWIDTH 10 0
BBX 9 9 1 0
BITMAP
1F00
0000
1F80
3380
6700
C700
CF00
F700
6700
ENDCHAR
STARTCHAR uni01CF
ENCODING 463
SWIDTH 361 0
DWIDTH 5 0
BBX 6 12 1 0
BITMAP
7C
00
38
38
30
70
70
70
70
60
E0
E0
ENDCHAR
STARTCHAR uni01D0
ENCODING 464
SWIDTH 343 0
DWIDTH 5 0
BBX 5 9 1 0
BITMAP
F8
00
70
70
60
60
60
E0
E0
ENDCHAR
STARTCHAR uni01D1
ENCODING 465
SWIDTH 855 0
DWIDTH 12 0
BBX 10 12 2 0
BITMAP
1F00
0000
0F00
31C0
70C0
60C0
E0C0
C0C0
C180
E180
6300
3C00
ENDCHAR
STARTCHAR uni01D2
ENCODING 466
SWIDTH 663 0
DWIDTH 9 0
BBX 8 9 2 0
BITMAP
3E
00
1E
66
67
C6
C6
CC
78
ENDCHAR
STARTCHAR uni01D3
ENCODING 467
SWIDTH 759 0
DWIDTH 11 0
BBX 10 12 2 0
BITMAP
1F00
0000
70C0
71C0
6180
6180
E180
E180
C380
C300
E300
3E00
ENDCHAR
STARTCHAR uni01D4
ENCODING 468
SWIDTH 675 0
DWIDTH 9 0
BBX 9 9 1 0
BITMAP
3E00
0000
7380
6380
6700
6700
6F00
F700
E700
ENDCHAR
STARTCHAR uni01D5
ENCODING 469
SWIDTH 759 0
DWIDTH 11 0
BBX 10 14 2 0
BITMAP
1F00
0000
1B00
0000
70C0
71C0
6180
6180
E180
E180
C380
C300
E300
3E00
ENDCHAR
STARTCHAR uni01D6
ENCODING 470
SWIDTH 675 0
DWIDTH 9 0
BBX 9 11 1 0
BITMAP
3E00
0000
1B00
0000
7380
6380
6700
6700
6F00
F700
E700
ENDCHAR
STARTCHAR uni01D7
ENCODING 471
SWIDTH 759 0
DWIDTH 11 0
BBX 10 14 2 0
BITMAP
1E00
0000
1B00
0000
70C0
71C0
6180
6180
E180
E180
C380
C300
E300
3E00
ENDCHAR
STARTCHAR uni01D8
ENCODING 472
SWIDTH 675 0
DWIDTH 9 0
BBX 9 11 1 0
BITMAP
1E00
0000
1B00
0000
7380
6380
6700
6700
6F00
F700
E700
ENDCHAR
STARTCHAR uni01D9
ENCODING 473
SWIDTH 759 0
DWIDTH 11 0
BBX 10 14 2 0
BITMAP
1F00
0000
1B00
0000
70C0
71C0
6180
6180
E180
E180
C380
C300
E300
3E00
ENDCHAR
STARTCHAR uni01DA
ENCODING 474
SWIDTH 675 0
DWIDTH 9 0
BBX 9 11 1 0
BITMAP
3E00
0000
1B00
0000
7380
6380
6700
6700
6F00
F700
E700
ENDCHAR
STARTCHAR uni01DB
ENCODING 475
SWIDTH 759 0
DWIDTH 11 0
BBX 10 14 2 0
BITMAP
0E00
0000
1B00
0000
70C0
71C0
6180
6180
E180
E180
C380
C300
E300
3E00
ENDCHAR
STARTCHAR uni01DC
ENCODING 476
SWIDTH 675 0
DWIDTH 9 0
BBX 9 11 1 0
BITMAP
1C00
0000
1B00
0000
7380
6380
6700
6700
6F00
F700
E700
ENDCHAR
STARTCHAR uni01DD
ENCODING 477
SWIDTH 612 0
DWIDTH 9 0
BBX 8 7 1 0
BITMAP
7E
87
3F
67
CE
CC
78
ENDCHAR
STARTCHAR uni01DE
ENCODING 478
SWIDTH 771 0
DWIDTH 11 0
BBX 10 14 0 0
BITMAP
0F80
0000
06C0
0000
0700
0700
0F80
0B80
1380
1180
3F80
61C0
41C0
C1C0
ENDCHAR
STARTCHAR uni01DF
ENCODING 479
SWIDTH 681 0
DWIDTH 10 0
BBX 9 11 1 0
BITMAP
1F00
0000
1B00
0000
1F80
3380
6700
C700
CF00
F700
6700
ENDCHAR
STARTCHAR uni01E0
ENCODING 480
SWIDTH 771 0
DWIDTH 11 0
BBX 10 14 0 0
BITMAP
1F00
0000
0600
0000
0700
0700
0F80
0B80
1380
1180
3F80
61C0
41C0
C1C0
ENDCHAR
STARTCHAR uni01E1
ENCODING 481
SWIDTH 681 0
DWIDTH 10 0
BBX 9 11 1 0
BITMAP
1F00
0000
0C00
0000
1F80
3380
6700
C700
CF00
F700
6700
ENDCHAR
STARTCHAR uni01E2
ENCODING 482
SWIDTH 1004 0
DWIDTH 14 0
BBX 15 12 0 0
BITMAP
01F0
0000
00FE
01C0
02C0
07C0
05F8
09C0
1F80
3180
6380
C3FC
ENDCHAR
STARTCHAR uni01E3
ENCODING 483
SWIDTH 987 0
DWIDTH 14 0
BBX 13 9 1 0
BITMAP
07C0
0000
1FF0
3398
6730
CFE0
DB08
F318
63F0
ENDCHAR
STARTCHAR uni01E4
ENCODING 484
SWIDTH 755 0
DWIDTH 11 0
BBX 11 10 1 0
BITMAP
0FC0
1840
3000
6000
E000
C000
C380
E3E0
6300
3F00
ENDCHAR
STARTCHAR uni01E5
ENCODING 485
SWIDTH 674 0
DWIDTH 9 0
BBX 9 10 1 -3
BITMAP
0F80
3380
6300
6700
EB00
F300
6700
FF80
8600
F800
ENDCHAR
STARTCHAR Gcaron
ENCODING 486
SWIDTH 755 0
DWIDTH 11 0
BBX 10 12 1 0
BITMAP
1F00
0000
0FC0
1840
3000
6000
E000
C000
C380
E380
6300
3F00
ENDCHAR
STARTCHAR gcaron
ENCODING 487
SWIDTH 674 0
DWIDTH 9 0
BBX 9 12 1 -3
BITMAP
1F00
0000
0F80
3380
6300
6700
EB00
F300
6700
0600
8600
F800
ENDCHAR
STARTCHAR uni01E8
ENCODING 488
SWIDTH 753 0
DWIDTH 11 0
BBX 10 12 1 0
BITMAP
3E00
0000
38C0
3900
3200
7600
7400
7E00
7600
6700
E300
E180
ENDCHAR
STARTCHAR uni01E9
ENCODING 489
SWIDTH 666 0
DWIDTH 9 0
BBX 9 12 1 0
BITMAP
7C00
0000
3800
3000
3000
7180
7200
7400
7C00
6E00
E600
E700
ENDCHAR
STARTCHAR uni01EA
ENCODING 490
SWIDTH 855 0
DWIDTH 12 0
BBX 10 13 2 -3
BITMAP
0F00
31C0
70C0
60C0
E0C0
C0C0
C180
E180
6300
3C00
0000
0000
1C00
ENDCHAR
STARTCHAR uni01EB
ENCODING 491
SWIDTH 663 0
DWIDTH 9 0
BBX 8 10 2 -3
BITMAP
1E
66
67
C6
C6
CC
78
00
00
38
ENDCHAR
STARTCHAR uni01EC
ENCODING 492
SWIDTH 855 0
DWIDTH 12 0
BBX 10 15 2 -3
BITMAP
1F00
0000
0F00
31C0
70C0
60C0
E0C0
C0C0
C180
E180
6300
3C00
0000
0000
1C00
ENDCHAR
STARTCHAR uni01ED
ENCODING 493
SWIDTH 663 0
DWIDTH 9 0
BBX 8 12 2 -3
BITMAP
3E
00
1E
66
67
C6
C6
CC
78
00
00
38
ENDCHAR
STARTCHAR uni01F0
ENCODING 496
SWIDTH 407 0
DWIDTH 6 0
BBX 8 12 0 -3
BITMAP
1F
00
06
06
0E
0C
0C
0C
0C
1C
18
F0
ENDCHAR
STARTCHAR uni01F4
ENCODING 500
SWIDTH 755 0
DWIDTH 11 0
BBX 10 12 1 0
BITMAP
0F00
0000
0FC0
1840
3000
6000
E000
C000
C380
E380
6300
3F00
ENDCHAR
STARTCHAR uni01F5
ENCODING 501
SWIDTH 674 0
DWIDTH 9 0
BBX 9 12 1 -3
BITMAP
1E00
0000
0F80
3380
6300
6700
EB00
F300
6700
0600
8600
F800
ENDCHAR
STARTCHAR uni01F8
ENCODING 504
SWIDTH 789 0
DWIDTH 11 0
BBX 11 12 1 0
BITMAP
0E00
0000
3060
3860
38C0
6CC0
6CC0
66C0
66C0
6380
C380
C180
ENDCHAR
STARTCHAR uni01F9
ENCODING 505
SWIDTH 675 0
DWIDTH 9 0
BBX 9 9 1 0
BITMAP
1C00
0000
7380
7780
7B00
7300
7300
E300
E700
ENDCHAR
STARTCHAR Aringacute
ENCODING 506
SWIDTH 771 0
DWIDTH 11 0
BBX 10 14 0 0
BITMAP
0F00
0000
0300
0000
0700
0700
0F80
0B80
1380
1180
3F80
61C0
41C0
C1C0
ENDCHAR
STARTCHAR aringacute
ENCODING 507
SWIDTH 681 0
DWIDTH 10 0
BBX 9 11 1 0
BITMAP
0F00
0000
0600
0000
1F80
3380
6700
C700
CF00
F700
6700
ENDCHAR
STARTCHAR AEacute
ENCODING 508
SWIDTH 1004 0
DWIDTH 14 0
BBX 15 12 0 0
BITMAP
01E0
0000
00FE
01C0
02C0
07C0
05F8
09C0
1F80
3180
6380
C3FC
ENDCHAR
STARTCHAR aeacute
ENCODING 509
SWIDTH 987 0
DWIDTH 14 0
BBX 13 9 1 0
BITMAP
0780
0000
1FF0
3398
6730
CFE0
DB08
F318
63F0
ENDCHAR
STARTCHAR Oslashacute
ENCODING 510
SWIDTH 855 0
DWIDTH 12 0
BBX 13 12 3 0
BITMAP
0780
0000
07B8
18E0
38E0
31E0
7360
6660
6CC0
78C0
3180
FE00
ENDCHAR
STARTCHAR oslashacute
ENCODING 511
SWIDTH 663 0
DWIDTH 9 0
BBX 10 9 3 0
BITMAP
0F00
0000
0FC0
3300
3780
6F00
7B00
7600
FC00
ENDCHAR
STARTCHAR Scommaaccent
ENCODING 536
SWIDTH 639 0
DWIDTH 9 0
BBX 8 16 1 -6
BITMAP
1F
31
70
78
3C
1E
0E
06
86
F8
00
1C
3C
0C
18
30
ENDCHAR
STARTCHAR scommaaccent
ENCODING 537
SWIDTH 527 0
DWIDTH 7 0
BBX 7 13 1 -6
BITMAP
1E
32
78
3C
1C
8C
F8
00
38
78
18
30
60
ENDCHAR
STARTCHAR Tcommaaccent
ENCODING 538
SWIDTH 747 0
DWIDTH 10 0
BBX 10 16 2 -6
BITMAP
FFC0
1C00
1C00
1C00
1800
1800
1800
3800
3800
3800
0000
1C00
3C00
0C00
1800
3000
ENDCHAR
STARTCHAR tcommaaccent
ENCODING 539
SWIDTH 437 0
DWIDTH 6 0
BBX 5 15 2 -6
BITMAP
70
70
F8
60
60
E0
C0
F0
70
00
70
F0
30
60
C0
ENDCHAR
STARTCHAR uni021E
ENCODING 542
SWIDTH 813 0
DWIDTH 11 0
BBX 11 12 1 0
BITMAP
0F80
0000
38E0
30E0
70E0
70C0
7FC0
61C0
61C0
E1C0
E180
E380
ENDCHAR
STARTCHAR uni021F
ENCODING 543
SWIDTH 675 0
DWIDTH 9 0
BBX 9 12 1 0
BITMAP
7C00
0000
3800
3800
3800
7380
7780
7B00
7300
7300
E300
E700
ENDCHAR
STARTCHAR uni0226
ENCODING 550
SWIDTH 771 0
DWIDTH 11 0
BBX 10 12 0 0
BITMAP
0600
0000
0700
0700
0F80
0B80
1380
1180
3F80
61C0
41C0
C1C0
ENDCHAR
STARTCHAR uni0227
ENCODING 551
SWIDTH 681 0
DWIDTH 10 0
BBX 9 9 1 0
BITMAP
0C00
0000
1F80
3380
6700
C700
CF00
F700
6700
ENDCHAR
STARTCHAR uni0228
ENCODING 552
SWIDTH 642 0
DWIDTH 9 0
BBX 9 13 1 -3
BITMAP
3F80
3000
3000
7000
7E00
7000
6000
6000
E000
FF00
1800
0800
3800
ENDCHAR
STARTCHAR uni0229
ENCODING 553
SWIDTH 612 0
DWIDTH 9 0
BBX 8 10 1 -3
BITMAP
1E
33
73
E6
FC
E1
7E
18
08
38
ENDCHAR
STARTCHAR uni022A
ENCODING 554
SWIDTH 855 0
DWIDTH 12 0
BBX 10 14 2 0
BITMAP
1F00
0000
0D80
0000
0F00
31C0
70C0
60C0
E0C0
C0C0
C180
E180
6300
3C00
ENDCHAR
STARTCHAR uni022B
ENCODING 555
SWIDTH 663 0
DWIDTH 9 0
BBX 8 11 2 0
BITMAP
3E
00
1B
00
1E
66
67
C6
C6
CC
78
ENDCHAR
STARTCHAR uni022C
ENCODING 556
SWIDTH 855 0
DWIDTH 12 0
BBX 10 14 2 0
BITMAP
1F00
0000
0F80
0000
0F00
31C0
70C0
60C0
E0C0
C0C0
C180
E180
6300
3C00
ENDCHAR
STARTCHAR uni022D
ENCODING 557
SWIDTH 663 0
DWIDTH 9 0
BBX 8 11 2 0
BITMAP
3E
00
1F
00
1E
66
67
C6
C6
CC
78
ENDCHAR
STARTCHAR uni022E
ENCODING 558
SWIDTH 855 0
DWIDTH 12 0
BBX 10 12 2 0
BITMAP
0600
0000
0F00
31C0
70C0
60C0
E0C0
C0C0
C180
E180
6300
3C00
ENDCHAR
STARTCHAR uni022F
ENCODING 559
SWIDTH 663 0
DWIDTH 9 0
BBX 8 9 2 0
BITMAP
18
00
1E
66
67
C6
C6
CC
78
ENDCHAR
STARTCHAR uni0230
ENCODING 560
SWIDTH 855 0
DWIDTH 12 0
BBX 10 14 2 0
BITMAP
1F00
0000
0600
0000
0F00
31C0
70C0
60C0
E0C0
C0C0
C180
E180
6300
3C00
ENDCHAR
STARTCHAR uni0231
ENCODING 561
SWIDTH 663 0
DWIDTH 9 0
BBX 8 11 2 0
BITMAP
3E
00
18
00
1E
66
67
C6
C6
CC
78
ENDCHAR
STARTCHAR uni0232
ENCODING 562
SWIDTH 681 0
DWIDTH 10 0
BBX 9 12 2 0
BITMAP
3E00
0000
E180
6200
6600
3400
3800
3800
3800
3000
7000
7000
ENDCHAR
STARTCHAR uni0233
ENCODING 563
SWIDTH 633 0
DWIDTH 9 0
BBX 10 12 0 -3
BITMAP
3E00
0000
70C0
7180
3300
3A00
3C00
3C00
3800
1000
3000
E000
ENDCHAR
STARTCHAR uni0250
ENCODING 592
SWIDTH 681 0
DWIDTH 10 0
BBX 9 7 1 0
BITMAP
7300
7780
7980
7180
7300
E600
FC00
ENDCHAR
STARTCHAR uni0259
ENCODING 601
SWIDTH 612 0
DWIDTH 9 0
BBX 8 7 1 0
BITMAP
7E
87
3F
67
CE
CC
78
ENDCHAR
STARTCHAR uni025F
ENCODING 607
SWIDTH 464 0
DWIDTH 6 0
BBX 8 13 1 -6
BITMAP
07
07
07
06
06
0E
0E
0E
0C
7E
1C
18
F0
ENDCHAR
STARTCHAR uni0265
ENCODING 613
SWIDTH 675 0
DWIDTH 9 0
BBX 9 10 1 -3
BITMAP
7380
6380
6700
6700
6F00
F700
E700
0E00
0E00
0E00
ENDCHAR
STARTCHAR uni0275
ENCODING 629
SWIDTH 663 0
DWIDTH 9 0
BBX 8 7 2 0
BITMAP
1E
66
67
FF
C6
CC
78
ENDCHAR
STARTCHAR uni0279
ENCODING 633
SWIDTH 542 0
DWIDTH 8 0
BBX 8 7 1 0
BITMAP
07
07
06
0E
0E
7E
EE
ENDCHAR
STARTCHAR uni0287
ENCODING 647
SWIDTH 437 0
DWIDTH 6 0
BBX 5 9 2 0
BITMAP
70
78
18
38
30
30
F8
70
70
ENDCHAR
STARTCHAR uni0289
ENCODING 649
SWIDTH 675 0
DWIDTH 9 0
BBX 9 7 1 0
BITMAP
7380
6380
6700
FF80
6F00
F700
E700
ENDCHAR
STARTCHAR uni028C
ENCODING 652
SWIDTH 630 0
DWIDTH 9 0
BBX 9 7 1 0
BITMAP
0700
0F00
1F00
1700
2300
6380
C380
ENDCHAR
STARTCHAR uni028D
ENCODING 653
SWIDTH 878 0
DWIDTH 12 0
BBX 12 7 2 0
BITMAP
0C70
1C70
1CB0
2DB0
2530
4630
C630
ENDCHAR
STARTCHAR uni028E
ENCODING 654
SWIDTH 633 0
DWIDTH 9 0
BBX 10 10 0 0
BITMAP
01C0
0300
0200
0700
0F00
0F00
1700
3300
6380
C380
ENDCHAR
STARTCHAR uni029E
ENCODING 670
SWIDTH 666 0
DWIDTH 9 0
BBX 9 10 1 -3
BITMAP
7380
3380
3B00
1F00
1700
2700
C700
0600
0600
0E00
ENDCHAR
STARTCHAR uni02BB
ENCODING 699
SWIDTH 265 0
DWIDTH 4 0
BBX 4 4 2 6
BITMAP
70
40
F0
E0
ENDCHAR
STARTCHAR afii57929
ENCODING 700
SWIDTH 265 0
DWIDTH 4 0
BBX 4 4 2 6
BITMAP
70
F0
60
E0
ENDCHAR
STARTCHAR afii64937
ENCODING 701
SWIDTH 265 0
DWIDTH 4 0
BBX 4 4 2 6
BITMAP
E0
F0
60
70
ENDCHAR
STARTCHAR circumflex
ENCODING 710
SWIDTH 663 0
DWIDTH 9 0
BBX 5 1 4 9
BITMAP
F8
ENDCHAR
STARTCHAR caron
ENCODING 711
SWIDTH 663 0
DWIDTH 9 0
BBX 5 1 4 9
BITMAP
F8
ENDCHAR
STARTCHAR uni02C8
ENCODING 712
SWIDTH 265 0
DWIDTH 4 0
BBX 3 4 2 6
BITMAP
E0
E0
C0
40
ENDCHAR
STARTCHAR macron
ENCODING 713
SWIDTH 663 0
DWIDTH 9 0
BBX 5 1 4 9
BITMAP
F8
ENDCHAR
STARTCHAR uni02CA
ENCODING 714
SWIDTH 663 0
DWIDTH 9 0
BBX 4 1 5 9
BITMAP
F0
ENDCHAR
STARTCHAR uni02CB
ENCODING 715
SWIDTH 663 0
DWIDTH 9 0
BBX 3 1 5 9
BITMAP
E0
ENDCHAR
STARTCHAR uni02CD
ENCODING 717
SWIDTH 663 0
DWIDTH 9 0
BBX 5 1 4 -2
BITMAP
F8
ENDCHAR
STARTCHAR uni02CE
ENCODING 718
SWIDTH 663 0
DWIDTH 9 0
BBX 3 1 5 -2
BITMAP
E0
ENDCHAR
STARTCHAR uni02CF
ENCODING 719
SWIDTH 663 0
DWIDTH 9 0
BBX 4 1 5 -2
BITMAP
F0
ENDCHAR
STARTCHAR breve
ENCODING 728
SWIDTH 663 0
DWIDTH 9 0
BBX 5 1 4 9
BITMAP
F8
ENDCHAR
STARTCHAR dotaccent
ENCODING 729
SWIDTH 663 0
DWIDTH 9 0
BBX 2 1 6 9
BITMAP
C0
ENDCHAR
STARTCHAR ring
ENCODING 730
SWIDTH 663 0
DWIDTH 9 0
BBX 2 1 6 9
BITMAP
C0
ENDCHAR
STARTCHAR ogonek
ENCODING 731
SWIDTH 663 0
DWIDTH 9 0
BBX 3 1 3 -3
BITMAP
E0
ENDCHAR
STARTCHAR tilde
ENCODING 732
SWIDTH 663 0
DWIDTH 9 0
BBX 5 1 4 9
BITMAP
F8
ENDCHAR
STARTCHAR hungarumlaut
ENCODING 733
SWIDTH 663 0
DWIDTH 9 0
BBX 6 1 4 9
BITMAP
FC
ENDCHAR
STARTCHAR uni02EE
ENCODING 750
SWIDTH 530 0
DWIDTH 7 0
BBX 7 4 2 6
BITMAP
6E
EE
64
CC
ENDCHAR
STARTCHAR uni037E
ENCODING 894
SWIDTH 343 0
DWIDTH 5 0
BBX 5 10 0 -3
BITMAP
38
78
00
00
00
70
F0
60
60
C0
ENDCHAR
STARTCHAR tonos
ENCODING 900
SWIDTH 663 0
DWIDTH 9 0
BBX 4 1 5 9
BITMAP
F0
ENDCHAR
STARTCHAR dieresistonos
ENCODING 901
SWIDTH 663 0
DWIDTH 9 0
BBX 5 3 4 9
BITMAP
78
00
D8
ENDCHAR
STARTCHAR anoteleia
ENCODING 903
SWIDTH 343 0
DWIDTH 10 0
BBX 2 1 5 4
BITMAP
C0
ENDCHAR
STARTCHAR mu
ENCODING 956
SWIDTH 681 0
DWIDTH 10 0
BBX 9 10 1 -3
BITMAP
3380
3380
7300
7700
6B00
7F00
7700
E000
E000
E000
ENDCHAR
STARTCHAR uni1E00
ENCODING 7680
SWIDTH 771 0
DWIDTH 11 0
BBX 10 12 0 -2
BITMAP
0700
0700
0F80
0B80
1380
1180
3F80
61C0
41C0
C1C0
0000
0600
ENDCHAR
STARTCHAR uni1E01
ENCODING 7681
SWIDTH 681 0
DWIDTH 10 0
BBX 9 9 1 -2
BITMAP
1F80
3380
6700
C700
CF00
F700
6700
0000
1800
ENDCHAR
STARTCHAR uni1E02
ENCODING 7682
SWIDTH 660 0
DWIDTH 9 0
BBX 9 12 1 0
BITMAP
0C00
0000
3F00
3180
3180
7100
7200
7F00
6300
6300
E300
FE00
ENDCHAR
STARTCHAR uni1E03
ENCODING 7683
SWIDTH 681 0
DWIDTH 10 0
BBX 9 12 1 0
BITMAP
1800
0000
3800
3800
3800
7B80
7780
7D80
7980
7300
E600
FC00
ENDCHAR
STARTCHAR uni1E04
ENCODING 7684
SWIDTH 660 0
DWIDTH 9 0
BBX 9 12 1 -2
BITMAP
3F00
3180
3180
7100
7200
7F00
6300
6300
E300
FE00
0000
1800
ENDCHAR
STARTCHAR uni1E05
ENCODING 7685
SWIDTH 681 0
DWIDTH 10 0
BBX 9 12 1 -2
BITMAP
3800
3800
3800
7B80
7780
7D80
7980
7300
E600
FC00
0000
1800
ENDCHAR
STARTCHAR uni1E06
ENCODING 7686
SWIDTH 660 0
DWIDTH 9 0
BBX 9 12 1 -2
BITMAP
3F00
3180
3180
7100
7200
7F00
6300
6300
E300
FE00
0000
3E00
ENDCHAR
STARTCHAR uni1E07
ENCODING 7687
SWIDTH 681 0
DWIDTH 10 0
BBX 9 12 1 -2
BITMAP
3800
3800
3800
7B80
7780
7D80
7980
7300
E600
FC00
0000
7C00
ENDCHAR
STARTCHAR uni1E08
ENCODING 7688
SWIDTH 737 0
DWIDTH 10 0
BBX 10 15 1 -3
BITMAP
1E00
0000
0FC0
1840
3000
6000
E000
C000
C000
E000
6180
3F00
1000
0800
3800
ENDCHAR
STARTCHAR uni1E09
ENCODING 7689
SWIDTH 548 0
DWIDTH 8 0
BBX 7 12 1 -3
BITMAP
3C
00
1E
72
60
E0
C0
E4
78
20
10
70
ENDCHAR
STARTCHAR uni1E0A
ENCODING 7690
SWIDTH 822 0
DWIDTH 12 0
BBX 11 12 1 0
BITMAP
0600
0000
3FC0
38E0
7860
7060
7060
70E0
70C0
E1C0
E380
FE00
ENDCHAR
STARTCHAR uni1E0B
ENCODING 7691
SWIDTH 681 0
DWIDTH 10 0
BBX 9 12 1 0
BITMAP
0600
0000
0380
0380
0300
1F00
3700
6700
CF00
DE00
F600
6E00
ENDCHAR
STARTCHAR uni1E0C
ENCODING 7692
SWIDTH 822 0
DWIDTH 12 0
BBX 11 12 1 -2
BITMAP
3FC0
38E0
7860
7060
7060
70E0
70C0
E1C0
E380
FE00
0000
0C00
ENDCHAR
STARTCHAR uni1E0D
ENCODING 7693
SWIDTH 681 0
DWIDTH 10 0
BBX 9 12 1 -2
BITMAP
0380
0380
0300
1F00
3700
6700
CF00
DE00
F600
6E00
0000
1800
ENDCHAR
STARTCHAR uni1E0E
ENCODING 7694
SWIDTH 822 0
DWIDTH 12 0
BBX 11 12 1 -2
BITMAP
3FC0
38E0
7860
7060
7060
70E0
70C0
E1C0
E380
FE00
0000
3E00
ENDCHAR
STARTCHAR uni1E0F
ENCODING 7695
SWIDTH 681 0
DWIDTH 10 0
BBX 9 12 1 -2
BITMAP
0380
0380
0300
1F00
3700
6700
CF00
DE00
F600
6E00
0000
7C00
ENDCHAR
STARTCHAR uni1E10
ENCODING 7696
SWIDTH 822 0
DWIDTH 12 0
BBX 11 13 1 -3
BITMAP
3FC0
38E0
7860
7060
7060
70E0
70C0
E1C0
E380
FE00
0C00
0400
1C00
ENDCHAR
STARTCHAR uni1E11
ENCODING 7697
SWIDTH 681 0
DWIDTH 10 0
BBX 9 13 1 -3
BITMAP
0380
0380
0300
1F00
3700
6700
CF00
DE00
F600
6E00
1800
0800
3800
ENDCHAR
STARTCHAR uni1E12
ENCODING 7698
SWIDTH 822 0
DWIDTH 12 0
BBX 11 12 1 -2
BITMAP
3FC0
38E0
7860
7060
7060
70E0
70C0
E1C0
E380
FE00
0000
3E00
ENDCHAR
STARTCHAR uni1E13
ENCODING 7699
SWIDTH 681 0
DWIDTH 10 0
BBX 9 12 1 -2
BITMAP
0380
0380
0300
1F00
3700
6700
CF00
DE00
F600
6E00
0000
7C00
ENDCHAR
STARTCHAR uni1E14
ENCODING 7700
SWIDTH 642 0
DWIDTH 9 0
BBX 9 14 1 0
BITMAP
1C00
0000
3E00
0000
3F80
3000
3000
7000
7E00
7000
6000
6000
E000
FF00
ENDCHAR
STARTCHAR uni1E15
ENCODING 7701
SWIDTH 612 0
DWIDTH 9 0
BBX 8 11 1 0
BITMAP
1C
00
3E
00
1E
33
73
E6
FC
E1
7E
ENDCHAR
STARTCHAR uni1E16
ENCODING 7702
SWIDTH 642 0
DWIDTH 9 0
BBX 9 14 1 0
BITMAP
1E00
0000
3E00
0000
3F80
3000
3000
7000
7E00
7000
6000
6000
E000
FF00
ENDCHAR
STARTCHAR uni1E17
ENCODING 7703
SWIDTH 612 0
DWIDTH 9 0
BBX 8 11 1 0
BITMAP
3C
00
3E
00
1E
33
73
E6
FC
E1
7E
ENDCHAR
STARTCHAR uni1E18
ENCODING 7704
SWIDTH 642 0
DWIDTH 9 0
BBX 9 12 1 -2
BITMAP
3F80
3000
3000
7000
7E00
7000
6000
6000
E000
FF00
0000
7C00
ENDCHAR
STARTCHAR uni1E19
ENCODING 7705
SWIDTH 612 0
DWIDTH 9 0
BBX 8 9 1 -2
BITMAP
1E
33
73
E6
FC
E1
7E
00
7C
ENDCHAR
STARTCHAR uni1E1A
ENCODING 7706
SWIDTH 642 0
DWIDTH 9 0
BBX 9 12 1 -2
BITMAP
3F80
3000
3000
7000
7E00
7000
6000
6000
E000
FF00
0000
7C00
ENDCHAR
STARTCHAR uni1E1B
ENCODING 7707
SWIDTH 612 0
DWIDTH 9 0
BBX 8 9 1 -2
BITMAP
1E
33
73
E6
FC
E1
7E
00
7C
ENDCHAR
STARTCHAR uni1E1C
ENCODING 7708
SWIDTH 642 0
DWIDTH 9 0
BBX 9 15 1 -3
BITMAP
3E00
0000
3F80
3000
3000
7000
7E00
7000
6000
6000
E000
FF00
1800
0800
3800
ENDCHAR
STARTCHAR uni1E1D
ENCODING 7709
SWIDTH 612 0
DWIDTH 9 0
BBX 8 12 1 -3
BITMAP
3E
00
1E
33
73
E6
FC
E1
7E
18
08
38
ENDCHAR
STARTCHAR uni1E1E
ENCODING 7710
SWIDTH 614 0
DWIDTH 9 0
BBX 9 12 1 0
BITMAP
0C00
0000
3F80
3000
3000
7000
7E00
6000
6000
6000
E000
E000
ENDCHAR
STARTCHAR uni1E1F
ENCODING 7711
SWIDTH 464 0
DWIDTH 6 0
BBX 8 15 1 -3
BITMAP
18
00
0F
18
38
7E
30
70
70
70
60
60
E0
E0
E0
ENDCHAR
STARTCHAR uni1E20
ENCODING 7712
SWIDTH 755 0
DWIDTH 11 0
BBX 10 12 1 0
BITMAP
1F00
0000
0FC0
1840
3000
6000
E000
C000
C380
E380
6300
3F00
ENDCHAR
STARTCHAR uni1E21
ENCODING 7713
SWIDTH 674 0
DWIDTH 9 0
BBX 9 12 1 -3
BITMAP
1F00
0000
0F80
3380
6300
6700
EB00
F300
6700
0600
8600
F800
ENDCHAR
STARTCHAR uni1E22
ENCODING 7714
SWIDTH 813 0
DWIDTH 11 0
BBX 11 12 1 0
BITMAP
0600
0000
38E0
30E0
70E0
70C0
7FC0
61C0
61C0
E1C0
E180
E380
ENDCHAR
STARTCHAR uni1E23
ENCODING 7715
SWIDTH 675 0
DWIDTH 9 0
BBX 9 12 1 0
BITMAP
1800
0000
3800
3800
3800
7380
7780
7B00
7300
7300
E300
E700
ENDCHAR
STARTCHAR uni1E24
ENCODING 7716
SWIDTH 813 0
DWIDTH 11 0
BBX 11 12 1 -2
BITMAP
38E0
30E0
70E0
70C0
7FC0
61C0
61C0
E1C0
E180
E380
0000
0C00
ENDCHAR
STARTCHAR uni1E25
ENCODING 7717
SWIDTH 675 0
DWIDTH 9 0
BBX 9 12 1 -2
BITMAP
3800
3800
3800
7380
7780
7B00
7300
7300
E300
E700
0000
1800
ENDCHAR
STARTCHAR uni1E26
ENCODING 7718
SWIDTH 813 0
DWIDTH 11 0
BBX 11 12 1 0
BITMAP
0D80
0000
38E0
30E0
70E0
70C0
7FC0
61C0
61C0
E1C0
E180
E380
ENDCHAR
STARTCHAR uni1E27
ENCODING 7719
SWIDTH 675 0
DWIDTH 9 0
BBX 9 12 1 0
BITMAP
6C00
0000
3800
3800
3800
7380
7780
7B00
7300
7300
E300
E700
ENDCHAR
STARTCHAR uni1E28
ENCODING 7720
SWIDTH 813 0
DWIDTH 11 0
BBX 11 13 1 -3
BITMAP
38E0
30E0
70E0
70C0
7FC0
61C0
61C0
E1C0
E180
E380
0C00
0400
1C00
ENDCHAR
STARTCHAR uni1E29
ENCODING 7721
SWIDTH 675 0
DWIDTH 9 0
BBX 9 13 1 -3
BITMAP
3800
3800
3800
7380
7780
7B00
7300
7300
E300
E700
1800
0800
3800
ENDCHAR
STARTCHAR uni1E2A
ENCODING 7722
SWIDTH 813 0
DWIDTH 11 0
BBX 11 12 1 -2
BITMAP
38E0
30E0
70E0
70C0
7FC0
61C0
61C0
E1C0
E180
E380
0000
3E00
ENDCHAR
STARTCHAR uni1E2B
ENCODING 7723
SWIDTH 675 0
DWIDTH 9 0
BBX 9 12 1 -2
BITMAP
3800
3800
3800
7380
7780
7B00
7300
7300
E300
E700
0000
3E00
ENDCHAR
STARTCHAR uni1E2C
ENCODING 7724
SWIDTH 361 0
DWIDTH 5 0
BBX 6 12 0 -2
BITMAP
1C
1C
18
38
38
38
38
30
70
70
00
F8
ENDCHAR
STARTCHAR uni1E2D
ENCODING 7725
SWIDTH 343 0
DWIDTH 5 0
BBX 6 12 0 -2
BITMAP
1C
00
00
38
38
38
38
30
70
70
00
F8
ENDCHAR
STARTCHAR uni1E2E
ENCODING 7726
SWIDTH 361 0
DWIDTH 5 0
BBX 6 14 1 0
BITMAP
78
00
6C
00
38
38
30
70
70
70
70
60
E0
E0
ENDCHAR
STARTCHAR uni1E2F
ENCODING 7727
SWIDTH 343 0
DWIDTH 5 0
BBX 6 11 1 0
BITMAP
78
00
6C
00
70
70
60
60
60
E0
E0
ENDCHAR
STARTCHAR uni1E30
ENCODING 7728
SWIDTH 753 0
DWIDTH 11 0
BBX 10 12 1 0
BITMAP
1E00
0000
38C0
3900
3200
7600
7400
7E00
7600
6700
E300
E180
ENDCHAR
STARTCHAR uni1E31
ENCODING 7729
SWIDTH 666 0
DWIDTH 9 0
BBX 9 12 1 0
BITMAP
3C00
0000
3800
3000
3000
7180
7200
7400
7C00
6E00
E600
E700
ENDCHAR
STARTCHAR uni1E32
ENCODING 7730
SWIDTH 753 0
DWIDTH 11 0
BBX 10 12 1 -2
BITMAP
38C0
3900
3200
7600
7400
7E00
7600
6700
E300
E180
0000
1800
ENDCHAR
STARTCHAR uni1E33
ENCODING 7731
SWIDTH 666 0
DWIDTH 9 0
BBX 9 12 1 -2
BITMAP
3800
3000
3000
7180
7200
7400
7C00
6E00
E600
E700
0000
1800
ENDCHAR
STARTCHAR uni1E34
ENCODING 7732
SWIDTH 753 0
DWIDTH 11 0
BBX 10 12 1 -2
BITMAP
38C0
3900
3200
7600
7400
7E00
7600
6700
E300
E180
0000
3E00
ENDCHAR
STARTCHAR uni1E35
ENCODING 7733
SWIDTH 666 0
DWIDTH 9 0
BBX 9 12 1 -2
BITMAP
3800
3000
3000
7180
7200
7400
7C00
6E00
E600
E700
0000
3E00
ENDCHAR
STARTCHAR uni1E36
ENCODING 7734
SWIDTH 623 0
DWIDTH 9 0
BBX 8 12 1 -2
BITMAP
38
38
30
70
70
70
70
60
E0
FF
00
30
ENDCHAR
STARTCHAR uni1E37
ENCODING 7735
SWIDTH 343 0
DWIDTH 5 0
BBX 5 12 1 -2
BITMAP
38
38
30
70
70
70
70
60
E0
E0
00
60
ENDCHAR
STARTCHAR uni1E38
ENCODING 7736
SWIDTH 623 0
DWIDTH 9 0
BBX 8 14 1 -2
BITMAP
7C
00
38
38
30
70
70
70
70
60
E0
FF
00
30
ENDCHAR
STARTCHAR uni1E39
ENCODING 7737
SWIDTH 343 0
DWIDTH 5 0
BBX 5 14 1 -2
BITMAP
F8
00
38
38
30
70
70
70
70
60
E0
E0
00
60
ENDCHAR
STARTCHAR uni1E3A
ENCODING 7738
SWIDTH 623 0
DWIDTH 9 0
BBX 8 12 1 -2
BITMAP
38
38
30
70
70
70
70
60
E0
FF
00
7C
ENDCHAR
STARTCHAR uni1E3B
ENCODING 7739
SWIDTH 343 0
DWIDTH 5 0
BBX 6 12 0 -2
BITMAP
1C
1C
18
38
38
38
38
30
70
70
00
F8
ENDCHAR
STARTCHAR uni1E3C
ENCODING 7740
SWIDTH 623 0
DWIDTH 9 0
BBX 8 12 1 -2
BITMAP
38
38
30
70
70
70
70
60
E0
FF
00
7C
ENDCHAR
STARTCHAR uni1E3D
ENCODING 7741
SWIDTH 343 0
DWIDTH 5 0
BBX 6 12 0 -2
BITMAP
1C
1C
18
38
38
38
38
30
70
70
00
F8
ENDCHAR
STARTCHAR uni1E3E
ENCODING 7742
SWIDTH 940 0
DWIDTH 13 0
BBX 13 12 1 0
BITMAP
0780
0000
3C38
3C78
3C70
6CB0
6CB0
6D70
6F70
6E60
CC60
C0E0
ENDCHAR
STARTCHAR uni1E3F
ENCODING 7743
SWIDTH 991 0
DWIDTH 14 0
BBX 13 9 1 0
BITMAP
0780
0000
7738
7F78
6BF8
77B0
6730
E730
E630
ENDCHAR
STARTCHAR uni1E40
ENCODING 7744
SWIDTH 940 0
DWIDTH 13 0
BBX 13 12 1 0
BITMAP
0300
0000
3C38
3C78
3C70
6CB0
6CB0
6D70
6F70
6E60
CC60
C0E0
ENDCHAR
STARTCHAR uni1E41
ENCODING 7745
SWIDTH 991 0
DWIDTH 14 0
BBX 13 9 1 0
BITMAP
0300
0000
7738
7F78
6BF8
77B0
6730
E730
E630
ENDCHAR
STARTCHAR uni1E42
ENCODING 7746
SWIDTH 940 0
DWIDTH 13 0
BBX 13 12 1 -2
BITMAP
3C38
3C78
3C70
6CB0
6CB0
6D70
6F70
6E60
CC60
C0E0
0000
0600
ENDCHAR
STARTCHAR uni1E43
ENCODING 7747
SWIDTH 991 0
DWIDTH 14 0
BBX 13 9 1 -2
BITMAP
7738
7F78
6BF8
77B0
6730
E730
E630
0000
0600
ENDCHAR
STARTCHAR uni1E44
ENCODING 7748
SWIDTH 789 0
DWIDTH 11 0
BBX 11 12 1 0
BITMAP
0600
0000
3060
3860
38C0
6CC0
6CC0
66C0
66C0
6380
C380
C180
ENDCHAR
STARTCHAR uni1E45
ENCODING 7749
SWIDTH 675 0
DWIDTH 9 0
BBX 9 9 1 0
BITMAP
0C00
0000
7380
7780
7B00
7300
7300
E300
E700
ENDCHAR
STARTCHAR uni1E46
ENCODING 7750
SWIDTH 789 0
DWIDTH 11 0
BBX 11 12 1 -2
BITMAP
3060
3860
38C0
6CC0
6CC0
66C0
66C0
6380
C380
C180
0000
0C00
ENDCHAR
STARTCHAR uni1E47
ENCODING 7751
SWIDTH 675 0
DWIDTH 9 0
BBX 9 9 1 -2
BITMAP
7380
7780
7B00
7300
7300
E300
E700
0000
1800
ENDCHAR
STARTCHAR uni1E48
ENCODING 7752
SWIDTH 789 0
DWIDTH 11 0
BBX 11 12 1 -2
BITMAP
3060
3860
38C0
6CC0
6CC0
66C0
66C0
6380
C380
C180
0000
1F00
ENDCHAR
STARTCHAR uni1E49
ENCODING 7753
SWIDTH 675 0
DWIDTH 9 0
BBX 9 9 1 -2
BITMAP
7380
7780
7B00
7300
7300
E300
E700
0000
3E00
ENDCHAR
STARTCHAR uni1E4A
ENCODING 7754
SWIDTH 789 0
DWIDTH 11 0
BBX 11 12 1 -2
BITMAP
3060
3860
38C0
6CC0
6CC0
66C0
66C0
6380
C380
C180
0000
1F00
ENDCHAR
STARTCHAR uni1E4B
ENCODING 7755
SWIDTH 675 0
DWIDTH 9 0
BBX 9 9 1 -2
BITMAP
7380
7780
7B00
7300
7300
E300
E700
0000
3E00
ENDCHAR
STARTCHAR uni1E4C
ENCODING 7756
SWIDTH 855 0
DWIDTH 12 0
BBX 10 14 2 0
BITMAP
0F00
0000
0F80
0000
0F00
31C0
70C0
60C0
E0C0
C0C0
C180
E180
6300
3C00
ENDCHAR
STARTCHAR uni1E4D
ENCODING 7757
SWIDTH 663 0
DWIDTH 9 0
BBX 8 11 2 0
BITMAP
1E
00
1F
00
1E
66
67
C6
C6
CC
78
ENDCHAR
STARTCHAR uni1E4E
ENCODING 7758
SWIDTH 855 0
DWIDTH 12 0
BBX 10 14 2 0
BITMAP
1B00
0000
0F80
0000
0F00
31C0
70C0
60C0
E0C0
C0C0
C180
E180
6300
3C00
ENDCHAR
STARTCHAR uni1E4F
ENCODING 7759
SWIDTH 663 0
DWIDTH 9 0
BBX 8 11 2 0
BITMAP
36
00
1F
00
1E
66
67
C6
C6
CC
78
ENDCHAR
STARTCHAR uni1E50
ENCODING 7760
SWIDTH 855 0
DWIDTH 12 0
BBX 10 14 2 0
BITMAP
0E00
0000
1F00
0000
0F00
31C0
70C0
60C0
E0C0
C0C0
C180
E180
6300
3C00
ENDCHAR
STARTCHAR uni1E51
ENCODING 7761
SWIDTH 663 0
DWIDTH 9 0
BBX 8 11 2 0
BITMAP
1C
00
3E
00
1E
66
67
C6
C6
CC
78
ENDCHAR
STARTCHAR uni1E52
ENCODING 7762
SWIDTH 855 0
DWIDTH 12 0
BBX 10 14 2 0
BITMAP
0F00
0000
1F00
0000
0F00
31C0
70C0
60C0
E0C0
C0C0
C180
E180
6300
3C00
ENDCHAR
STARTCHAR uni1E53
ENCODING 7763
SWIDTH 663 0
DWIDTH 9 0
BBX 8 11 2 0
BITMAP
3C
00
3E
00
1E
66
67
C6
C6
CC
78
ENDCHAR
STARTCHAR uni1E54
ENCODING 7764
SWIDTH 645 0
DWIDTH 9 0
BBX 9 12 1 0
BITMAP
1E00
0000
3F00
3180
7180
7180
7300
7E00
6000
E000
E000
E000
ENDCHAR
STARTCHAR uni1E55
ENCODING 7765
SWIDTH 681 0
DWIDTH 10 0
BBX 9 12 1 -3
BITMAP
1E00
0000
3B00
3780
7D80
7980
7300
7600
7C00
E000
E000
E000
ENDCHAR
STARTCHAR uni1E56
ENCODING 7766
SWIDTH 645 0
DWIDTH 9 0
BBX 9 12 1 0
BITMAP
0C00
0000
3F00
3180
7180
7180
7300
7E00
6000
E000
E000
E000
ENDCHAR
STARTCHAR uni1E57
ENCODING 7767
SWIDTH 681 0
DWIDTH 10 0
BBX 9 12 1 -3
BITMAP
0C00
0000
3B00
3780
7D80
7980
7300
7600
7C00
E000
E000
E000
ENDCHAR
STARTCHAR uni1E58
ENCODING 7768
SWIDTH 708 0
DWIDTH 10 0
BBX 9 12 1 0
BITMAP
0C00
0000
3F80
3180
7180
7380
7F00
7C00
6600
E600
E600
E300
ENDCHAR
STARTCHAR uni1E59
ENCODING 7769
SWIDTH 542 0
DWIDTH 8 0
BBX 8 9 1 0
BITMAP
18
00
77
7E
70
70
60
E0
E0
ENDCHAR
STARTCHAR uni1E5A
ENCODING 7770
SWIDTH 708 0
DWIDTH 10 0
BBX 9 12 1 -2
BITMAP
3F80
3180
7180
7380
7F00
7C00
6600
E600
E600
E300
0000
1800
ENDCHAR
STARTCHAR uni1E5B
ENCODING 7771
SWIDTH 542 0
DWIDTH 8 0
BBX 8 9 1 -2
BITMAP
77
7E
70
70
60
E0
E0
00
60
ENDCHAR
STARTCHAR uni1E5C
ENCODING 7772
SWIDTH 708 0
DWIDTH 10 0
BBX 9 14 1 -2
BITMAP
3E00
0000
3F80
3180
7180
7380
7F00
7C00
6600
E600
E600
E300
0000
1800
ENDCHAR
STARTCHAR uni1E5D
ENCODING 7773
SWIDTH 542 0
DWIDTH 8 0
BBX 8 11 1 -2
BITMAP
7C
00
77
7E
70
70
60
E0
E0
00
60
ENDCHAR
STARTCHAR uni1E5E
ENCODING 7774
SWIDTH 708 0
DWIDTH 10 0
BBX 9 12 1 -2
BITMAP
3F80
3180
7180
7380
7F00
7C00
6600
E600
E600
E300
0000
7C00
ENDCHAR
STARTCHAR uni1E5F
ENCODING 7775
SWIDTH 542 0
DWIDTH 8 0
BBX 8 9 1 -2
BITMAP
77
7E
70
70
60
E0
E0
00
F8
ENDCHAR
STARTCHAR uni1E60
ENCODING 7776
SWIDTH 639 0
DWIDTH 9 0
BBX 8 12 1 0
BITMAP
18
00
1F
31
70
78
3C
1E
0E
06
86
F8
ENDCHAR
STARTCHAR uni1E61
ENCODING 7777
SWIDTH 527 0
DWIDTH 7 0
BBX 7 9 1 0
BITMAP
18
00
1E
32
78
3C
1C
8C
F8
ENDCHAR
STARTCHAR uni1E62
ENCODING 7778
SWIDTH 639 0
DWIDTH 9 0
BBX 8 12 1 -2
BITMAP
1F
31
70
78
3C
1E
0E
06
86
F8
00
18
ENDCHAR
STARTCHAR uni1E63
ENCODING 7779
SWIDTH 527 0
DWIDTH 7 0
BBX 7 9 1 -2
BITMAP
1E
32
78
3C
1C
8C
F8
00
30
ENDCHAR
STARTCHAR uni1E64
ENCODING 7780
SWIDTH 639 0
DWIDTH 9 0
BBX 8 14 1 0
BITMAP
0C
00
3C
00
1F
31
70
78
3C
1E
0E
06
86
F8
ENDCHAR
STARTCHAR uni1E65
ENCODING 7781
SWIDTH 527 0
DWIDTH 7 0
BBX 7 11 1 0
BITMAP
18
00
3C
00
1E
32
78
3C
1C
8C
F8
ENDCHAR
STARTCHAR uni1E66
ENCODING 7782
SWIDTH 639 0
DWIDTH 9 0
BBX 8 14 1 0
BITMAP
0C
00
1F
00
1F
31
70
78
3C
1E
0E
06
86
F8
ENDCHAR
STARTCHAR uni1E67
ENCODING 7783
SWIDTH 527 0
DWIDTH 7 0
BBX 8 11 1 0
BITMAP
0C
00
1F
00
1E
32
78
3C
1C
8C
F8
ENDCHAR
STARTCHAR uni1E68
ENCODING 7784
SWIDTH 639 0
DWIDTH 9 0
BBX 8 14 1 -2
BITMAP
18
00
1F
31
70
78
3C
1E
0E
06
86
F8
00
18
ENDCHAR
STARTCHAR uni1E69
ENCODING 7785
SWIDTH 527 0
DWIDTH 7 0
BBX 7 11 1 -2
BITMAP
18
00
1E
32
78
3C
1C
8C
F8
00
30
ENDCHAR
STARTCHAR uni1E6A
ENCODING 7786
SWIDTH 747 0
DWIDTH 10 0
BBX 10 12 2 0
BITMAP
0C00
0000
FFC0
1C00
1C00
1C00
1800
1800
1800
3800
3800
3800
ENDCHAR
STARTCHAR uni1E6B
ENCODING 7787
SWIDTH 437 0
DWIDTH 6 0
BBX 5 11 2 0
BITMAP
30
00
70
70
F8
60
60
E0
C0
F0
70
ENDCHAR
STARTCHAR uni1E6C
ENCODING 7788
SWIDTH 747 0
DWIDTH 10 0
BBX 10 12 2 -2
BITMAP
FFC0
1C00
1C00
1C00
1800
1800
1800
3800
3800
3800
0000
1800
ENDCHAR
STARTCHAR uni1E6D
ENCODING 7789
SWIDTH 437 0
DWIDTH 6 0
BBX 5 11 2 -2
BITMAP
70
70
F8
60
60
E0
C0
F0
70
00
60
ENDCHAR
STARTCHAR uni1E6E
ENCODING 7790
SWIDTH 747 0
DWIDTH 10 0
BBX 10 12 2 -2
BITMAP
FFC0
1C00
1C00
1C00
1800
1800
1800
3800
3800
3800
0000
3E00
ENDCHAR
STARTCHAR uni1E6F
ENCODING 7791
SWIDTH 437 0
DWIDTH 6 0
BBX 5 11 2 -2
BITMAP
70
70
F8
60
60
E0
C0
F0
70
00
F8
ENDCHAR
STARTCHAR uni1E70
ENCODING 7792
SWIDTH 747 0
DWIDTH 10 0
BBX 10 12 2 -2
BITMAP
FFC0
1C00
1C00
1C00
1800
1800
1800
3800
3800
3800
0000
3E00
ENDCHAR
STARTCHAR uni1E71
ENCODING 7793
SWIDTH 437 0
DWIDTH 6 0
BBX 5 11 2 -2
BITMAP
70
70
F8
60
60
E0
C0
F0
70
00
F8
ENDCHAR
STARTCHAR uni1E72
ENCODING 7794
SWIDTH 759 0
DWIDTH 11 0
BBX 10 12 2 -2
BITMAP
70C0
71C0
6180
6180
E180
E180
C380
C300
E300
3E00
0000
3600
ENDCHAR
STARTCHAR uni1E73
ENCODING 7795
SWIDTH 675 0
DWIDTH 9 0
BBX 9 9 1 -2
BITMAP
7380
6380
6700
6700
6F00
F700
E700
0000
3600
ENDCHAR
STARTCHAR uni1E74
ENCODING 7796
SWIDTH 759 0
DWIDTH 11 0
BBX 10 12 2 -2
BITMAP
70C0
71C0
6180
6180
E180
E180
C380
C300
E300
3E00
0000
3E00
ENDCHAR
STARTCHAR uni1E75
ENCODING 7797
SWIDTH 675 0
DWIDTH 9 0
BBX 9 9 1 -2
BITMAP
7380
6380
6700
6700
6F00
F700
E700
0000
3E00
ENDCHAR
STARTCHAR uni1E76
ENCODING 7798
SWIDTH 759 0
DWIDTH 11 0
BBX 10 12 2 -2
BITMAP
70C0
71C0
6180
6180
E180
E180
C380
C300
E300
3E00
0000
3E00
ENDCHAR
STARTCHAR uni1E77
ENCODING 7799
SWIDTH 675 0
DWIDTH 9 0
BBX 9 9 1 -2
BITMAP
7380
6380
6700
6700
6F00
F700
E700
0000
3E00
ENDCHAR
STARTCHAR uni1E78
ENCODING 7800
SWIDTH 759 0
DWIDTH 11 0
BBX 10 14 2 0
BITMAP
1E00
0000
1F00
0000
70C0
71C0
6180
6180
E180
E180
C380
C300
E300
3E00
ENDCHAR
STARTCHAR uni1E79
ENCODING 7801
SWIDTH 675 0
DWIDTH 9 0
BBX 9 11 1 0
BITMAP
1E00
0000
3E00
0000
7380
6380
6700
6700
6F00
F700
E700
ENDCHAR
STARTCHAR uni1E7A
ENCODING 7802
SWIDTH 759 0
DWIDTH 11 0
BBX 10 14 2 0
BITMAP
1B00
0000
1F00
0000
70C0
71C0
6180
6180
E180
E180
C380
C300
E300
3E00
ENDCHAR
STARTCHAR uni1E7B
ENCODING 7803
SWIDTH 675 0
DWIDTH 9 0
BBX 9 11 1 0
BITMAP
3600
0000
3E00
0000
7380
6380
6700
6700
6F00
F700
E700
ENDCHAR
STARTCHAR uni1E7C
ENCODING 7804
SWIDTH 765 0
DWIDTH 11 0
BBX 10 12 2 0
BITMAP
3E00
0000
E0C0
E080
E100
6100
7200
7600
7400
7800
7800
3000
ENDCHAR
STARTCHAR uni1E7D
ENCODING 7805
SWIDTH 630 0
DWIDTH 9 0
BBX 9 9 1 0
BITMAP
3E00
0000
E180
E300
6200
7400
7C00
7800
7000
ENDCHAR
STARTCHAR uni1E7E
ENCODING 7806
SWIDTH 765 0
DWIDTH 11 0
BBX 10 12 2 -2
BITMAP
E0C0
E080
E100
6100
7200
7600
7400
7800
7800
3000
0000
1800
ENDCHAR
STARTCHAR uni1E7F
ENCODING 7807
SWIDTH 630 0
DWIDTH 9 0
BBX 9 9 1 -2
BITMAP
E180
E300
6200
7400
7C00
7800
7000
0000
3000
ENDCHAR
STARTCHAR Wgrave
ENCODING 7808
SWIDTH 991 0
DWIDTH 14 0
BBX 12 12 2 0
BITMAP
0E00
0000
C610
C630
CE20
CE60
CE40
D6C0
D680
E780
E700
E700
ENDCHAR
STARTCHAR wgrave
ENCODING 7809
SWIDTH 878 0
DWIDTH 12 0
BBX 12 9 2 0
BITMAP
0E00
0000
C630
C620
CA40
DB40
D380
E380
E300
ENDCHAR
STARTCHAR Wacute
ENCODING 7810
SWIDTH 991 0
DWIDTH 14 0
BBX 12 12 2 0
BITMAP
0F00
0000
C610
C630
CE20
CE60
CE40
D6C0
D680
E780
E700
E700
ENDCHAR
STARTCHAR wacute
ENCODING 7811
SWIDTH 878 0
DWIDTH 12 0
BBX 12 9 2 0
BITMAP
0F00
0000
C630
C620
CA40
DB40
D380
E380
E300
ENDCHAR
STARTCHAR Wdieresis
ENCODING 7812
SWIDTH 991 0
DWIDTH 14 0
BBX 12 12 2 0
BITMAP
1B00
0000
C610
C630
CE20
CE60
CE40
D6C0
D680
E780
E700
E700
ENDCHAR
STARTCHAR wdieresis
ENCODING 7813
SWIDTH 878 0
DWIDTH 12 0
BBX 12 9 2 0
BITMAP
1B00
0000
C630
C620
CA40
DB40
D380
E380
E300
ENDCHAR
STARTCHAR uni1E86
ENCODING 7814
SWIDTH 991 0
DWIDTH 14 0
BBX 12 12 2 0
BITMAP
0600
0000
C610
C630
CE20
CE60
CE40
D6C0
D680
E780
E700
E700
ENDCHAR
STARTCHAR uni1E87
ENCODING 7815
SWIDTH 878 0
DWIDTH 12 0
BBX 12 9 2 0
BITMAP
0600
0000
C630
C620
CA40
DB40
D380
E380
E300
ENDCHAR
STARTCHAR uni1E88
ENCODING 7816
SWIDTH 991 0
DWIDTH 14 0
BBX 12 12 2 -2
BITMAP
C610
C630
CE20
CE60
CE40
D6C0
D680
E780
E700
E700
0000
0C00
ENDCHAR
STARTCHAR uni1E89
ENCODING 7817
SWIDTH 878 0
DWIDTH 12 0
BBX 12 9 2 -2
BITMAP
C630
C620
CA40
DB40
D380
E380
E300
0000
0C00
ENDCHAR
STARTCHAR uni1E8A
ENCODING 7818
SWIDTH 696 0
DWIDTH 10 0
BBX 11 12 0 0
BITMAP
0600
0000
3860
1880
1D00
0F00
0E00
0E00
1E00
3700
2300
C380
ENDCHAR
STARTCHAR uni1E8B
ENCODING 7819
SWIDTH 563 0
DWIDTH 8 0
BBX 9 9 0 0
BITMAP
0C00
0000
3980
3A00
1C00
1C00
1C00
2E00
C700
ENDCHAR
STARTCHAR uni1E8C
ENCODING 7820
SWIDTH 696 0
DWIDTH 10 0
BBX 11 12 0 0
BITMAP
1B00
0000
3860
1880
1D00
0F00
0E00
0E00
1E00
3700
2300
C380
ENDCHAR
STARTCHAR uni1E8D
ENCODING 7821
SWIDTH 563 0
DWIDTH 8 0
BBX 9 9 0 0
BITMAP
3600
0000
3980
3A00
1C00
1C00
1C00
2E00
C700
ENDCHAR
STARTCHAR uni1E8E
ENCODING 7822
SWIDTH 681 0
DWIDTH 10 0
BBX 9 12 2 0
BITMAP
1800
0000
E180
6200
6600
3400
3800
3800
3800
3000
7000
7000
ENDCHAR
STARTCHAR uni1E8F
ENCODING 7823
SWIDTH 633 0
DWIDTH 9 0
BBX 10 12 0 -3
BITMAP
0C00
0000
70C0
7180
3300
3A00
3C00
3C00
3800
1000
3000
E000
ENDCHAR
STARTCHAR uni1E90
ENCODING 7824
SWIDTH 687 0
DWIDTH 10 0
BBX 10 12 1 0
BITMAP
0F80
0000
3FC0
0180
0300
0700
0E00
1C00
3800
3000
6000
FF00
ENDCHAR
STARTCHAR uni1E91
ENCODING 7825
SWIDTH 630 0
DWIDTH 9 0
BBX 9 9 0 0
BITMAP
1F00
0000
7F80
0300
0E00
1C00
3000
6000
FF00
ENDCHAR
STARTCHAR uni1E92
ENCODING 7826
SWIDTH 687 0
DWIDTH 10 0
BBX 10 12 1 -2
BITMAP
3FC0
0180
0300
0700
0E00
1C00
3800
3000
6000
FF00
0000
1800
ENDCHAR
STARTCHAR uni1E93
ENCODING 7827
SWIDTH 630 0
DWIDTH 9 0
BBX 9 9 0 -2
BITMAP
7F80
0300
0E00
1C00
3000
6000
FF00
0000
1800
ENDCHAR
STARTCHAR uni1E94
ENCODING 7828
SWIDTH 687 0
DWIDTH 10 0
BBX 10 12 1 -2
BITMAP
3FC0
0180
0300
0700
0E00
1C00
3800
3000
6000
FF00
0000
3E00
ENDCHAR
STARTCHAR uni1E95
ENCODING 7829
SWIDTH 630 0
DWIDTH 9 0
BBX 9 9 0 -2
BITMAP
7F80
0300
0E00
1C00
3000
6000
FF00
0000
7C00
ENDCHAR
STARTCHAR uni1E96
ENCODING 7830
SWIDTH 675 0
DWIDTH 9 0
BBX 9 12 1 -2
BITMAP
3800
3800
3800
7380
7780
7B00
7300
7300
E300
E700
0000
3E00
ENDCHAR
STARTCHAR uni1E97
ENCODING 7831
SWIDTH 437 0
DWIDTH 6 0
BBX 5 11 2 0
BITMAP
D8
00
70
70
F8
60
60
E0
C0
F0
70
ENDCHAR
STARTCHAR uni1E98
ENCODING 7832
SWIDTH 878 0
DWIDTH 12 0
BBX 12 9 2 0
BITMAP
0600
0000
C630
C620
CA40
DB40
D380
E380
E300
ENDCHAR
STARTCHAR uni1E99
ENCODING 7833
SWIDTH 633 0
DWIDTH 9 0
BBX 10 12 0 -3
BITMAP
0C00
0000
70C0
7180
3300
3A00
3C00
3C00
3800
1000
3000
E000
ENDCHAR
STARTCHAR uni1EA0
ENCODING 7840
SWIDTH 771 0
DWIDTH 11 0
BBX 10 12 0 -2
BITMAP
0700
0700
0F80
0B80
1380
1180
3F80
61C0
41C0
C1C0
0000
0600
ENDCHAR
STARTCHAR uni1EA1
ENCODING 7841
SWIDTH 681 0
DWIDTH 10 0
BBX 9 9 1 -2
BITMAP
1F80
3380
6700
C700
CF00
F700
6700
0000
1800
ENDCHAR
STARTCHAR uni1EA4
ENCODING 7844
SWIDTH 771 0
DWIDTH 11 0
BBX 10 14 0 0
BITMAP
0F00
0000
07C0
0000
0700
0700
0F80
0B80
1380
1180
3F80
61C0
41C0
C1C0
ENDCHAR
STARTCHAR uni1EA5
ENCODING 7845
SWIDTH 681 0
DWIDTH 10 0
BBX 9 11 1 0
BITMAP
1E00
0000
1F00
0000
1F80
3380
6700
C700
CF00
F700
6700
ENDCHAR
STARTCHAR uni1EA6
ENCODING 7846
SWIDTH 771 0
DWIDTH 11 0
BBX 10 14 0 0
BITMAP
0700
0000
07C0
0000
0700
0700
0F80
0B80
1380
1180
3F80
61C0
41C0
C1C0
ENDCHAR
STARTCHAR uni1EA7
ENCODING 7847
SWIDTH 681 0
DWIDTH 10 0
BBX 9 11 1 0
BITMAP
0E00
0000
1F00
0000
1F80
3380
6700
C700
CF00
F700
6700
ENDCHAR
STARTCHAR uni1EAA
ENCODING 7850
SWIDTH 771 0
DWIDTH 11 0
BBX 10 14 0 0
BITMAP
0F80
0000
07C0
0000
0700
0700
0F80
0B80
1380
1180
3F80
61C0
41C0
C1C0
ENDCHAR
STARTCHAR uni1EAB
ENCODING 7851
SWIDTH 681 0
DWIDTH 10 0
BBX 9 11 1 0
BITMAP
1F00
0000
1F00
0000
1F80
3380
6700
C700
CF00
F700
6700
ENDCHAR
STARTCHAR uni1EAC
ENCODING 7852
SWIDTH 771 0
DWIDTH 11 0
BBX 10 14 0 -2
BITMAP
0F80
0000
0700
0700
0F80
0B80
1380
1180
3F80
61C0
41C0
C1C0
0000
0600
ENDCHAR
STARTCHAR uni1EAD
ENCODING 7853
SWIDTH 681 0
DWIDTH 10 0
BBX 9 11 1 -2
BITMAP
1F00
0000
1F80
3380
6700
C700
CF00
F700
6700
0000
1800
ENDCHAR
STARTCHAR uni1EAE
ENCODING 7854
SWIDTH 771 0
DWIDTH 11 0
BBX 10 14 0 0
BITMAP
0F00
0000
0F80
0000
0700
0700
0F80
0B80
1380
1180
3F80
61C0
41C0
C1C0
ENDCHAR
STARTCHAR uni1EAF
ENCODING 7855
SWIDTH 681 0
DWIDTH 10 0
BBX 9 11 1 0
BITMAP
1E00
0000
1F00
0000
1F80
3380
6700
C700
CF00
F700
6700
ENDCHAR
STARTCHAR uni1EB0
ENCODING 7856
SWIDTH 771 0
DWIDTH 11 0
BBX 10 14 0 0
BITMAP
0700
0000
0F80
0000
0700
0700
0F80
0B80
1380
1180
3F80
61C0
41C0
C1C0
ENDCHAR
STARTCHAR uni1EB1
ENCODING 7857
SWIDTH 681 0
DWIDTH 10 0
BBX 9 11 1 0
BITMAP
0E00
0000
1F00
0000
1F80
3380
6700
C700
CF00
F700
6700
ENDCHAR
STARTCHAR uni1EB4
ENCODING 7860
SWIDTH 771 0
DWIDTH 11 0
BBX 10 14 0 0
BITMAP
0F80
0000
0F80
0000
0700
0700
0F80
0B80
1380
1180
3F80
61C0
41C0
C1C0
ENDCHAR
STARTCHAR uni1EB5
ENCODING 7861
SWIDTH 681 0
DWIDTH 10 0
BBX 9 11 1 0
BITMAP
1F00
0000
1F00
0000
1F80
3380
6700
C700
CF00
F700
6700
ENDCHAR
STARTCHAR uni1EB6
ENCODING 7862
SWIDTH 771 0
DWIDTH 11 0
BBX 10 14 0 -2
BITMAP
0F80
0000
0700
0700
0F80
0B80
1380
1180
3F80
61C0
41C0
C1C0
0000
0600
ENDCHAR
STARTCHAR uni1EB7
ENCODING 7863
SWIDTH 681 0
DWIDTH 10 0
BBX 9 11 1 -2
BITMAP
1F00
0000
1F80
3380
6700
C700
CF00
F700
6700
0000
1800
ENDCHAR
STARTCHAR uni1EB8
ENCODING 7864
SWIDTH 642 0
DWIDTH 9 0
BBX 9 12 1 -2
BITMAP
3F80
3000
3000
7000
7E00
7000
6000
6000
E000
FF00
0000
1800
ENDCHAR
STARTCHAR uni1EB9
ENCODING 7865
SWIDTH 612 0
DWIDTH 9 0
BBX 8 9 1 -2
BITMAP
1E
33
73
E6
FC
E1
7E
00
18
ENDCHAR
STARTCHAR uni1EBC
ENCODING 7868
SWIDTH 642 0
DWIDTH 9 0
BBX 9 12 1 0
BITMAP
3E00
0000
3F80
3000
3000
7000
7E00
7000
6000
6000
E000
FF00
ENDCHAR
STARTCHAR uni1EBD
ENCODING 7869
SWIDTH 612 0
DWIDTH 9 0
BBX 8 9 1 0
BITMAP
3E
00
1E
33
73
E6
FC
E1
7E
ENDCHAR
STARTCHAR uni1EBE
ENCODING 7870
SWIDTH 642 0
DWIDTH 9 0
BBX 9 14 1 0
BITMAP
1E00
0000
1F00
0000
3F80
3000
3000
7000
7E00
7000
6000
6000
E000
FF00
ENDCHAR
STARTCHAR uni1EBF
ENCODING 7871
SWIDTH 612 0
DWIDTH 9 0
BBX 8 11 1 0
BITMAP
1E
00
1F
00
1E
33
73
E6
FC
E1
7E
ENDCHAR
STARTCHAR uni1EC0
ENCODING 7872
SWIDTH 642 0
DWIDTH 9 0
BBX 9 14 1 0
BITMAP
1C00
0000
1F00
0000
3F80
3000
3000
7000
7E00
7000
6000
6000
E000
FF00
ENDCHAR
STARTCHAR uni1EC1
ENCODING 7873
SWIDTH 612 0
DWIDTH 9 0
BBX 8 11 1 0
BITMAP
1C
00
1F
00
1E
33
73
E6
FC
E1
7E
ENDCHAR
STARTCHAR uni1EC4
ENCODING 7876
SWIDTH 642 0
DWIDTH 9 0
BBX 9 14 1 0
BITMAP
3E00
0000
1F00
0000
3F80
3000
3000
7000
7E00
7000
6000
6000
E000
FF00
ENDCHAR
STARTCHAR uni1EC5
ENCODING 7877
SWIDTH 612 0
DWIDTH 9 0
BBX 8 11 1 0
BITMAP
3E
00
1F
00
1E
33
73
E6
FC
E1
7E
ENDCHAR
STARTCHAR uni1EC6
ENCODING 7878
SWIDTH 642 0
DWIDTH 9 0
BBX 9 14 1 -2
BITMAP
3E00
0000
3F80
3000
3000
7000
7E00
7000
6000
6000
E000
FF00
0000
1800
ENDCHAR
STARTCHAR uni1EC7
ENCODING 7879
SWIDTH 612 0
DWIDTH 9 0
BBX 8 11 1 -2
BITMAP
3E
00
1E
33
73
E6
FC
E1
7E
00
18
ENDCHAR
STARTCHAR uni1ECA
ENCODING 7882
SWIDTH 361 0
DWIDTH 5 0
BBX 5 12 1 -2
BITMAP
38
38
30
70
70
70
70
60
E0
E0
00
60
ENDCHAR
STARTCHAR uni1ECB
ENCODING 7883
SWIDTH 343 0
DWIDTH 5 0
BBX 5 12 1 -2
BITMAP
38
00
00
70
70
70
70
60
E0
E0
00
60
ENDCHAR
STARTCHAR uni1ECC
ENCODING 7884
SWIDTH 855 0
DWIDTH 12 0
BBX 10 12 2 -2
BITMAP
0F00
31C0
70C0
60C0
E0C0
C0C0
C180
E180
6300
3C00
0000
1800
ENDCHAR
STARTCHAR uni1ECD
ENCODING 7885
SWIDTH 663 0
DWIDTH 9 0
BBX 8 9 2 -2
BITMAP
1E
66
67
C6
C6
CC
78
00
30
ENDCHAR
STARTCHAR uni1ED0
ENCODING 7888
SWIDTH 855 0
DWIDTH 12 0
BBX 10 14 2 0
BITMAP
0F00
0000
0F80
0000
0F00
31C0
70C0
60C0
E0C0
C0C0
C180
E180
6300
3C00
ENDCHAR
STARTCHAR uni1ED1
ENCODING 7889
SWIDTH 663 0
DWIDTH 9 0
BBX 8 11 2 0
BITMAP
1E
00
1F
00
1E
66
67
C6
C6
CC
78
ENDCHAR
STARTCHAR uni1ED2
ENCODING 7890
SWIDTH 855 0
DWIDTH 12 0
BBX 10 14 2 0
BITMAP
0E00
0000
0F80
0000
0F00
31C0
70C0
60C0
E0C0
C0C0
C180
E180
6300
3C00
ENDCHAR
STARTCHAR uni1ED3
ENCODING 7891
SWIDTH 663 0
DWIDTH 9 0
BBX 8 11 2 0
BITMAP
1C
00
1F
00
1E
66
67
C6
C6
CC
78
ENDCHAR
STARTCHAR uni1ED6
ENCODING 7894
SWIDTH 855 0
DWIDTH 12 0
BBX 10 14 2 0
BITMAP
1F00
0000
0F80
0000
0F00
31C0
70C0
60C0
E0C0
C0C0
C180
E180
6300
3C00
ENDCHAR
STARTCHAR uni1ED7
ENCODING 7895
SWIDTH 663 0
DWIDTH 9 0
BBX 8 11 2 0
BITMAP
3E
00
1F
00
1E
66
67
C6
C6
CC
78
ENDCHAR
STARTCHAR uni1ED8
ENCODING 7896
SWIDTH 855 0
DWIDTH 12 0
BBX 10 14 2 -2
BITMAP
1F00
0000
0F00
31C0
70C0
60C0
E0C0
C0C0
C180
E180
6300
3C00
0000
1800
ENDCHAR
STARTCHAR uni1ED9
ENCODING 7897
SWIDTH 663 0
DWIDTH 9 0
BBX 8 11 2 -2
BITMAP
3E
00
1E
66
67
C6
C6
CC
78
00
30
ENDCHAR
STARTCHAR uni1EDA
ENCODING 7898
SWIDTH 855 0
DWIDTH 12 0
BBX 13 12 2 0
BITMAP
0780
0000
0F38
31F8
70F0
60F0
E0C0
C0C0
C180
E180
6300
3C00
ENDCHAR
STARTCHAR uni1EDB
ENCODING 7899
SWIDTH 663 0
DWIDTH 9 0
BBX 12 9 2 0
BITMAP
0780
0000
1E70
66F0
6760
C6E0
C600
CC00
7800
ENDCHAR
STARTCHAR uni1EDC
ENCODING 7900
SWIDTH 855 0
DWIDTH 12 0
BBX 13 12 2 0
BITMAP
0380
0000
0F38
31F8
70F0
60F0
E0C0
C0C0
C180
E180
6300
3C00
ENDCHAR
STARTCHAR uni1EDD
ENCODING 7901
SWIDTH 663 0
DWIDTH 9 0
BBX 12 9 2 0
BITMAP
0700
0000
1E70
66F0
6760
C6E0
C600
CC00
7800
ENDCHAR
STARTCHAR uni1EE0
ENCODING 7904
SWIDTH 855 0
DWIDTH 12 0
BBX 13 12 2 0
BITMAP
07C0
0000
0F38
31F8
70F0
60F0
E0C0
C0C0
C180
E180
6300
3C00
ENDCHAR
STARTCHAR uni1EE1
ENCODING 7905
SWIDTH 663 0
DWIDTH 9 0
BBX 12 9 2 0
BITMAP
0F80
0000
1E70
66F0
6760
C6E0
C600
CC00
7800
ENDCHAR
STARTCHAR uni1EE2
ENCODING 7906
SWIDTH 855 0
DWIDTH 12 0
BBX 13 12 2 -2
BITMAP
0F38
31F8
70F0
60F0
E0C0
C0C0
C180
E180
6300
3C00
0000
0C00
ENDCHAR
STARTCHAR uni1EE3
ENCODING 7907
SWIDTH 663 0
DWIDTH 9 0
BBX 12 9 2 -2
BITMAP
1E70
66F0
6760
C6E0
C600
CC00
7800
0000
1800
ENDCHAR
STARTCHAR uni1EE4
ENCODING 7908
SWIDTH 759 0
DWIDTH 11 0
BBX 10 12 2 -2
BITMAP
70C0
71C0
6180
6180
E180
E180
C380
C300
E300
3E00
0000
1800
ENDCHAR
STARTCHAR uni1EE5
ENCODING 7909
SWIDTH 675 0
DWIDTH 9 0
BBX 9 9 1 -2
BITMAP
7380
6380
6700
6700
6F00
F700
E700
0000
1800
ENDCHAR
STARTCHAR uni1EE8
ENCODING 7912
SWIDTH 759 0
DWIDTH 11 0
BBX 13 12 2 0
BITMAP
0780
0000
70F8
71F8
61B0
61F0
E180
E180
C380
C300
E300
3E00
ENDCHAR
STARTCHAR uni1EE9
ENCODING 7913
SWIDTH 675 0
DWIDTH 9 0
BBX 12 9 1 0
BITMAP
0780
0000
73F0
63F0
6760
67E0
6F00
F700
E700
ENDCHAR
STARTCHAR uni1EEA
ENCODING 7914
SWIDTH 759 0
DWIDTH 11 0
BBX 13 12 2 0
BITMAP
0380
0000
70F8
71F8
61B0
61F0
E180
E180
C380
C300
E300
3E00
ENDCHAR
STARTCHAR uni1EEB
ENCODING 7915
SWIDTH 675 0
DWIDTH 9 0
BBX 12 9 1 0
BITMAP
0700
0000
73F0
63F0
6760
67E0
6F00
F700
E700
ENDCHAR
STARTCHAR uni1EEE
ENCODING 7918
SWIDTH 759 0
DWIDTH 11 0
BBX 13 12 2 0
BITMAP
07C0
0000
70F8
71F8
61B0
61F0
E180
E180
C380
C300
E300
3E00
ENDCHAR
STARTCHAR uni1EEF
ENCODING 7919
SWIDTH 675 0
DWIDTH 9 0
BBX 12 9 1 0
BITMAP
0F80
0000
73F0
63F0
6760
67E0
6F00
F700
E700
ENDCHAR
STARTCHAR uni1EF0
ENCODING 7920
SWIDTH 759 0
DWIDTH 11 0
BBX 13 12 2 -2
BITMAP
70F8
71F8
61B0
61F0
E180
E180
C380
C300
E300
3E00
0000
0C00
ENDCHAR
STARTCHAR uni1EF1
ENCODING 7921
SWIDTH 675 0
DWIDTH 9 0
BBX 12 9 1 -2
BITMAP
73F0
63F0
6760
67E0
6F00
F700
E700
0000
0C00
ENDCHAR
STARTCHAR Ygrave
ENCODING 7922
SWIDTH 681 0
DWIDTH 10 0
BBX 9 12 2 0
BITMAP
1C00
0000
E180
6200
6600
3400
3800
3800
3800
3000
7000
7000
ENDCHAR
STARTCHAR ygrave
ENCODING 7923
SWIDTH 633 0
DWIDTH 9 0
BBX 10 12 0 -3
BITMAP
1C00
0000
70C0
7180
3300
3A00
3C00
3C00
3800
1000
3000
E000
ENDCHAR
STARTCHAR uni1EF4
ENCODING 7924
SWIDTH 681 0
DWIDTH 10 0
BBX 9 12 2 -2
BITMAP
E180
6200
6600
3400
3800
3800
3800
3000
7000
7000
0000
3000
ENDCHAR
STARTCHAR uni1EF5
ENCODING 7925
SWIDTH 633 0
DWIDTH 9 0
BBX 10 12 0 -5
BITMAP
70C0
7180
3300
3A00
3C00
3C00
3800
1000
3000
E000
0000
3000
ENDCHAR
STARTCHAR uni1EF8
ENCODING 7928
SWIDTH 681 0
DWIDTH 10 0
BBX 9 12 2 0
BITMAP
3E00
0000
E180
6200
6600
3400
3800
3800
3800
3000
7000
7000
ENDCHAR
STARTCHAR uni1EF9
ENCODING 7929
SWIDTH 633 0
DWIDTH 9 0
BBX 10 12 0 -3
BITMAP
3E00
0000
70C0
7180
3300
3A00
3C00
3C00
3800
1000
3000
E000
ENDCHAR
STARTCHAR uni2000
ENCODING 8192
SWIDTH 500 0
DWIDTH 7 0
BBX 1 1 0 0
BITMAP
00
ENDCHAR
STARTCHAR uni2001
ENCODING 8193
SWIDTH 1000 0
DWIDTH 14 0
BBX 1 1 0 0
BITMAP
00
ENDCHAR
STARTCHAR uni2002
ENCODING 8194
SWIDTH 500 0
DWIDTH 7 0
BBX 1 1 0 0
BITMAP
00
ENDCHAR
STARTCHAR uni2003
ENCODING 8195
SWIDTH 1000 0
DWIDTH 14 0
BBX 1 1 0 0
BITMAP
00
ENDCHAR
STARTCHAR uni2004
ENCODING 8196
SWIDTH 333 0
DWIDTH 5 0
BBX 1 1 0 0
BITMAP
00
ENDCHAR
STARTCHAR uni2005
ENCODING 8197
SWIDTH 250 0
DWIDTH 3 0
BBX 1 1 0 0
BITMAP
00
ENDCHAR
STARTCHAR uni2006
ENCODING 8198
SWIDTH 167 0
DWIDTH 2 0
BBX 1 1 0 0
BITMAP
00
ENDCHAR
STARTCHAR uni2007
ENCODING 8199
SWIDTH 687 0
DWIDTH 10 0
BBX 1 1 0 0
BITMAP
00
ENDCHAR
STARTCHAR uni2008
ENCODING 8200
SWIDTH 343 0
DWIDTH 5 0
BBX 1 1 0 0
BITMAP
00
ENDCHAR
STARTCHAR uni2009
ENCODING 8201
SWIDTH 200 0
DWIDTH 3 0
BBX 1 1 0 0
BITMAP
00
ENDCHAR
STARTCHAR uni200A
ENCODING 8202
SWIDTH 100 0
DWIDTH 1 0
BBX 1 1 0 0
BITMAP
00
ENDCHAR
STARTCHAR uni200B
ENCODING 8203
SWIDTH 0 0
DWIDTH 0 0
BBX 1 1 0 0
BITMAP
00
ENDCHAR
STARTCHAR uni2010
ENCODING 8208
SWIDTH 289 0
DWIDTH 4 0
BBX 3 1 1 4
BITMAP
E0
ENDCHAR
STARTCHAR uni2011
ENCODING 8209
SWIDTH 289 0
DWIDTH 4 0
BBX 3 1 1 4
BITMAP
E0
ENDCHAR
STARTCHAR figuredash
ENCODING 8210
SWIDTH 500 0
DWIDTH 7 0
BBX 6 1 1 4
BITMAP
FC
ENDCHAR
STARTCHAR endash
ENCODING 8211
SWIDTH 500 0
DWIDTH 7 0
BBX 6 1 1 4
BITMAP
FC
ENDCHAR
STARTCHAR emdash
ENCODING 8212
SWIDTH 1000 0
DWIDTH 14 0
BBX 13 1 1 3
BITMAP
FFF8
ENDCHAR
STARTCHAR afii00208
ENCODING 8213
SWIDTH 1000 0
DWIDTH 14 0
BBX 13 1 1 3
BITMAP
FFF8
ENDCHAR
STARTCHAR quoteleft
ENCODING 8216
SWIDTH 265 0
DWIDTH 4 0
BBX 4 4 2 6
BITMAP
70
40
F0
E0
ENDCHAR
STARTCHAR quoteright
ENCODING 8217
SWIDTH 265 0
DWIDTH 4 0
BBX 4 4 2 6
BITMAP
70
F0
60
E0
ENDCHAR
STARTCHAR quotesinglbase
ENCODING 8218
SWIDTH 265 0
DWIDTH 4 0
BBX 4 5 0 -3
BITMAP
70
F0
70
60
C0
ENDCHAR
STARTCHAR quotereversed
ENCODING 8219
SWIDTH 265 0
DWIDTH 4 0
BBX 4 4 2 6
BITMAP
E0
F0
60
70
ENDCHAR
STARTCHAR quotedblleft
ENCODING 8220
SWIDTH 530 0
DWIDTH 7 0
BBX 7 4 2 6
BITMAP
66
4C
EE
EC
ENDCHAR
STARTCHAR quotedblright
ENCODING 8221
SWIDTH 530 0
DWIDTH 7 0
BBX 7 4 2 6
BITMAP
6E
EE
64
CC
ENDCHAR
STARTCHAR quotedblbase
ENCODING 8222
SWIDTH 530 0
DWIDTH 7 0
BBX 7 5 0 -3
BITMAP
6E
EE
66
64
CC
ENDCHAR
STARTCHAR uni201F
ENCODING 8223
SWIDTH 530 0
DWIDTH 7 0
BBX 7 4 2 6
BITMAP
EC
EE
4C
66
ENDCHAR
STARTCHAR dagger
ENCODING 8224
SWIDTH 687 0
DWIDTH 10 0
BBX 7 13 3 -3
BITMAP
1C
18
18
18
FE
30
30
30
30
70
70
60
60
ENDCHAR
STARTCHAR daggerdbl
ENCODING 8225
SWIDTH 687 0
DWIDTH 10 0
BBX 8 13 2 -3
BITMAP
0C
0C
0C
1C
7F
18
18
18
FE
38
30
30
30
ENDCHAR
STARTCHAR bullet
ENCODING 8226
SWIDTH 687 0
DWIDTH 10 0
BBX 6 5 3 1
BITMAP
7C
7C
FC
F8
F8
ENDCHAR
STARTCHAR ellipsis
ENCODING 8230
SWIDTH 1000 0
DWIDTH 14 0
BBX 11 1 2 0
BITMAP
C460
ENDCHAR
STARTCHAR perthousand
ENCODING 8240
SWIDTH 1332 0
DWIDTH 19 0
BBX 18 10 1 0
BITMAP
703000
D84000
D88000
D90000
720000
04E380
0936C0
1336C0
2326C0
C1E380
ENDCHAR
STARTCHAR guilsinglleft
ENCODING 8249
SWIDTH 386 0
DWIDTH 5 0
BBX 5 7 1 0
BITMAP
08
18
20
E0
60
70
20
ENDCHAR
STARTCHAR guilsinglright
ENCODING 8250
SWIDTH 386 0
DWIDTH 5 0
BBX 5 7 1 0
BITMAP
20
70
30
38
20
C0
80
ENDCHAR
STARTCHAR fraction
ENCODING 8260
SWIDTH 130 0
DWIDTH 2 0
BBX 11 10 -3 0
BITMAP
0060
0080
0100
0200
0600
0C00
1800
1000
2000
C000
ENDCHAR
STARTCHAR oneinferior
ENCODING 8321
SWIDTH 539 0
DWIDTH 6 0
BBX 3 6 -9 -3
BITMAP
E0
60
40
40
C0
C0
ENDCHAR
STARTCHAR twoinferior
ENCODING 8322
SWIDTH 539 0
DWIDTH 6 0
BBX 5 6 -8 -3
BITMAP
78
08
18
20
40
F0
ENDCHAR
STARTCHAR threeinferior
ENCODING 8323
SWIDTH 539 0
DWIDTH 6 0
BBX 5 6 -8 -3
BITMAP
78
08
70
10
18
F0
ENDCHAR
STARTCHAR uni20A5
ENCODING 8357
SWIDTH 991 0
DWIDTH 14 0
BBX 13 13 1 -3
BITMAP
0030
0040
0040
77B8
7F78
6BF8
77B0
6730
E730
EE30
1000
1000
6000
ENDCHAR
STARTCHAR uni20A6
ENCODING 8358
SWIDTH 789 0
DWIDTH 11 0
BBX 11 10 1 0
BITMAP
3060
3860
3FC0
6CC0
6CC0
66C0
7FC0
6380
C380
C180
ENDCHAR
STARTCHAR uni20A9
ENCODING 8361
SWIDTH 991 0
DWIDTH 14 0
BBX 12 10 2 0
BITMAP
C610
C630
DFE0
CE60
CE40
D6C0
FFC0
E780
E700
E700
ENDCHAR
STARTCHAR Euro
ENCODING 8364
SWIDTH 737 0
DWIDTH 10 0
BBX 12 10 -1 0
BITMAP
03F0
0610
7F80
1800
3800
3000
FF00
3800
1860
0FC0
ENDCHAR
STARTCHAR uni20AD
ENCODING 8365
SWIDTH 753 0
DWIDTH 11 0
BBX 10 10 1 0
BITMAP
38C0
3900
3200
7600
FFC0
7E00
7600
6700
E300
E180
ENDCHAR
STARTCHAR uni2103
ENCODING 8451
SWIDTH 966 0
DWIDTH 13 0
BBX 11 10 3 0
BITMAP
87E0
8C20
1800
3000
7000
6000
6000
7000
30C0
1F80
ENDCHAR
STARTCHAR uni2109
ENCODING 8457
SWIDTH 843 0
DWIDTH 12 0
BBX 10 10 3 0
BITMAP
9FC0
9800
1800
3800
3F00
3000
3000
3000
7000
7000
ENDCHAR
STARTCHAR trademark
ENCODING 8482
SWIDTH 901 0
DWIDTH 13 0
BBX 12 5 2 5
BITMAP
FB70
7370
6770
67E0
6560
ENDCHAR
STARTCHAR uni212A
ENCODING 8490
SWIDTH 753 0
DWIDTH 11 0
BBX 10 10 1 0
BITMAP
38C0
3900
3200
7600
7400
7E00
7600
6700
E300
E180
ENDCHAR
STARTCHAR uni212B
ENCODING 8491
SWIDTH 771 0
DWIDTH 11 0
BBX 10 12 0 0
BITMAP
0300
0000
0700
0700
0F80
0B80
1380
1180
3F80
61C0
41C0
C1C0
ENDCHAR
STARTCHAR uni2132
ENCODING 8498
SWIDTH 614 0
DWIDTH 9 0
BBX 9 10 1 0
BITMAP
0380
0380
0300
0300
0300
3F00
0700
0600
0600
FE00
ENDCHAR
STARTCHAR minus
ENCODING 8722
SWIDTH 687 0
DWIDTH 10 0
BBX 8 1 2 4
BITMAP
FF
ENDCHAR
STARTCHAR fraction
ENCODING 8725
SWIDTH 130 0
DWIDTH 2 0
BBX 11 10 -3 0
BITMAP
0060
0080
0100
0200
0600
0C00
1800
1000
2000
C000
ENDCHAR
STARTCHAR periodcentered
ENCODING 8729
SWIDTH 343 0
DWIDTH 10 0
BBX 2 1 5 4
BITMAP
C0
ENDCHAR
STARTCHAR uni2236
ENCODING 8758
SWIDTH 343 0
DWIDTH 5 0
BBX 4 7 1 0
BITMAP
70
70
00
00
00
E0
E0
ENDCHAR
STARTCHAR uni2259
ENCODING 8793
SWIDTH 687 0
DWIDTH 10 0
BBX 9 7 1 1
BITMAP
3E00
0000
7F80
0000
0000
0000
FF00
ENDCHAR
STARTCHAR uni225A
ENCODING 8794
SWIDTH 687 0
DWIDTH 10 0
BBX 9 7 1 1
BITMAP
3E00
0000
7F80
0000
0000
0000
FF00
ENDCHAR
STARTCHAR notequal
ENCODING 8800
SWIDTH 687 0
DWIDTH 10 0
BBX 11 13 0 -3
BITMAP
0060
0080
0080
0100
3FC0
0200
0400
0800
7F80
1000
2000
2000
C000
ENDCHAR
STARTCHAR equivalence
ENCODING 8801
SWIDTH 687 0
DWIDTH 10 0
BBX 9 5 0 1
BITMAP
FF80
0000
FF80
0000
FF80
ENDCHAR
STARTCHAR uni2262
ENCODING 8802
SWIDTH 687 0
DWIDTH 10 0
BBX 11 13 -1 -3
BITMAP
0060
0080
0080
0100
7FC0
0200
7FC0
0800
7FC0
1000
2000
2000
C000
ENDCHAR
STARTCHAR lessequal
ENCODING 8804
SWIDTH 687 0
DWIDTH 10 0
BBX 8 10 1 -2
BITMAP
01
07
1C
60
E0
30
0C
02
00
FF
ENDCHAR
STARTCHAR greaterequal
ENCODING 8805
SWIDTH 687 0
DWIDTH 10 0
BBX 8 10 1 -2
BITMAP
40
30
0C
07
06
18
E0
80
00
FF
ENDCHAR
STARTCHAR uni226E
ENCODING 8814
SWIDTH 687 0
DWIDTH 10 0
BBX 11 13 0 -2
BITMAP
0060
0080
0080
0180
0380
0E00
3400
7800
1800
1600
2100
2000
C000
ENDCHAR
STARTCHAR uni226F
ENCODING 8815
SWIDTH 687 0
DWIDTH 10 0
BBX 11 13 0 -2
BITMAP
0060
0080
0080
2100
1A00
0600
0780
0B00
0C00
7000
6000
2000
C000
ENDCHAR
STARTCHAR uni2270
ENCODING 8816
SWIDTH 687 0
DWIDTH 10 0
BBX 11 13 0 -3
BITMAP
0060
0080
0080
0380
0E00
3200
7400
1800
0E00
1100
2000
7F80
C000
ENDCHAR
STARTCHAR uni2271
ENCODING 8817
SWIDTH 687 0
DWIDTH 10 0
BBX 11 13 0 -3
BITMAP
0060
0080
2080
1900
0600
0380
0700
0C00
7800
5000
2000
7F80
C000
ENDCHAR
STARTCHAR fi
ENCODING -1
SWIDTH 695 0
DWIDTH 10 0
BBX 9 13 1 -3
BITMAP
0F00
1800
3800
7F80
3380
7300
7300
7700
6700
6700
E000
E000
E000
ENDCHAR
STARTCHAR fl
ENCODING -1
SWIDTH 695 0
DWIDTH 10 0
BBX 10 13 1 -3
BITMAP
0FC0
19C0
3980
7D80
3380
7380
7380
7300
7700
6700
E000
E000
E000
ENDCHAR
ENDFONT
